<svg xmlns="http://www.w3.org/2000/svg" xmlns:xlink="http://www.w3.org/1999/xlink" width="934" height="632" fill="none" xmlns:v="https://vecta.io/nano"><style><![CDATA[.B{fill:#fff}.C{stroke:#fff}.D{opacity:.03}.E{stroke-linecap:round}.F{stroke-linejoin:round}]]></style><g filter="url(#A)"><path d="M629.693 210.258c.828-.478 1.049-1.395.615-2.763a20.76 20.76 0 0 1-1.646-6.746c-.092-.775-.183-1.275-.333-1.465-.017-.03-.034-.059-.063-.042l-.047 1.013.006 1.378-.108-.53c-.258-1.745-.751-3.078-1.438-4.063-.098-.101-.132-.161-.192-.126-.16.132-.093 1.001.22 2.636l.358 1.372c.228.736.341 1.342.279 1.851-.011.322-.15.56-.387.697s-.324.464-.275 1.027.038.886-.08.954c-.059.035-.106.022-.187-.05-.103-.177-.231-.537-.327-1.113l-.13-.635a32.8 32.8 0 0 1-.727-4.199c-.207-1.656-.514-3.215-.958-4.735-.116-.407-.333-1.465-.591-3.211l-.556-3.902c-.009-.153-.083-.623-.222-1.411-.168-.495.021-.92.554-1.228.77-.444 1.022-.827.805-1.135-.115-.131-.272-.198-.476-.278-.234-.062-.374-.1-.425-.189l-.017-.029c-.051-.089-.031-.259.108-.497 1.74-2.386 3.653-4.2 5.665-5.363.829-.478 1.65-.834 2.51-1.054a7.03 7.03 0 0 1-2.011 1.714l-.638.329-1.582.952c-.469.35-.738.703-.851 1.123-.021.17.001.276.035.335.15.19.586.057 1.355-.387.711-.411 1.619-1.093 2.772-2.035l1.521-1.194.736-.503.846-.449c.283-.125.52-.261.727-.381l.634-.405a1.79 1.79 0 0 0 .758-1.149l-.004-.076c-.035-.059-.175-.097-.45-.095-.327-.088-.531-.168-.582-.256-.017-.03-.005-.077.054-.111.047.013.123.008.183-.026.148-.085.104-.297-.13-.635s-.49-.507-.753-.552c-.217-.033-.475-.003-.746.075-.347.082-.547.079-.645-.023-.068-.118-.043-.211.105-.297.118-.068.284-.124.508-.214.241-.06.448-.18.685-.317.385-.222.532-.583.436-1.159-.108-.53-.242-.966-.476-1.304-.48-.078-1.394.252-2.726 1.021-2.368 1.368-4.545 2.861-6.53 4.481l-2.091 1.641c-.047-.012-.128-.084-.243-.215l-.342-.592a4.16 4.16 0 0 0-.649-1.125c-.069-.118-.132-.16-.179-.173l.15.466c.168.495.186.801.068.869-.165.056-.322-.011-.437-.142-.103-.178-.215-.508-.259-.995-.04-.411-.007-.628.141-.713.059-.034.229-.014.403.083.204.079.373.1.433.066.148-.086.04-.34-.245-.767l-.38-.452-.44-.693c-.004-.076.008-.123.068-.157s.135-.039.241-.06c.076-.005.182-.027.241-.061.148-.085.152-.285-.036-.61-.197-.478-.199-.754-.021-.857.207-.119.209-.594.006-1.424-.091-.5-.203-.83-.352-1.02-.098-.102-.162-.144-.268-.122-.3.095-.482.121-.499.091l-.081-.071c-.034-.06.05-.187.27-.353.434-.409.586-.694.483-.872l-.217-.308c-.384-.528-1.419-.681-3.118-.41l-1.5.273 1.2-.929c1.212-.976 1.837-1.535 1.875-1.675-.043-.211-.146-.389-.266-.596-.115-.131-.208-.156-.326-.088s-.144.162-.029.293c.034.059-.008.123-.156.208-.385.223-.855.297-1.453.287-.246-.016-.386-.054-.467-.125-.285-.427-.139-.788.394-1.096l.922-.454c.415-.239.617-.435.591-.617-.009-.152.401-.468 1.23-.947l1.319-.722c1.51-.871 2.494-1.558 2.908-2.073.131-.115.202-.196.291-.247.148-.086.271-.078.352-.006s.25.092.492.031c.288-.047.571-.172.944-.347.786-.415 1.257-.489 1.504-.198.085.148.06.242-.088.327l-.194.073c-.306.018-.932.301-1.879.848l-1.751.932c-.207.12-.223.366-.001.75.149.19.264.321.375.376s.576-.096 1.392-.528c.859-.495 1.298-.828 1.289-.98.126-.192.536-.507 1.187-.883.178-.103.627-.283 1.346-.541.614-.235 1.215-.425 1.774-.55.936-.225 1.555-.109 1.905.36.201.279.326.838.347 1.695-.019.445.029.733.097.851.047.013.093.025.199.004l.317-.341c.612-.511 1.067-1.09 1.366-1.736.309-.968.523-1.486.582-1.52.106-.022.216.033.349.193.29.504.394.957.277 1.301-.071.356-.087.602.028.733l.064.042c.059-.034.169-.255.281-.675.142-.438.263-.981.328-1.689.035-.691.011-1.348-.137-2.013a4.27 4.27 0 0 0-.745-1.701c-.618-.866-1.541-1.439-2.814-1.73-1.438-.235-3.023-.11-4.78.471s-3.352 1.303-4.743 2.107l-.901.559c-.003.199-.206.395-.531.583l-.284.124-1.092.433c-.089.052-.177.103-.249.184-.469.35-1.222.823-2.198 1.387l-4.756 3.18c-.688.516-1.098.832-1.195 1.006-.126.191-.316.34-.583.494s-.748.55-1.415 1.172l-2.981 2.629-2.154 1.875-.988.887c-1.474 1.206-2.774 2.509-3.9 3.909-1.197 1.481-1.825 3.264-1.943 5.384-.065.709-.037 1.166.112 1.356l.017.03c.179.173.641.222 1.416.129l-.315.617a3.45 3.45 0 0 0-.465 1.176c-.041.339.05.839.303 1.482l.146.39c.104.453.25.842.433 1.092s.4.282.654.175c.592-.342.966-.992 1.17-1.939.112-.42.301-.845.507-1.24a20.67 20.67 0 0 0 1.63-2.441c.875-1.492 1.482-2.355 1.837-2.56.047.013.106-.022.195-.073.237-.137.481-.396.764-.796.252-.383.628-.757 1.092-1.184l.161-.132c.308-.217.845-.724 1.668-1.554l1.359-1.338a3.45 3.45 0 0 1 .701-.562c.503-.291 1.335-.969 2.467-2.017.042-.064.084-.127.114-.144.148-.086.288-.048.437.142.269.397.545 1.422.828 3.074l1.285 6.875c.426 2.241.601 3.639.54 4.148a2.22 2.22 0 0 1-.424.837l-.886 1.064-3.362 3.678c-.427.286-.815.707-1.135 1.247l-.906 1.234c-.742.902-1.181 1.51-1.315 1.824-.095.45-.009.874.26 1.271.252.368.537.519.842.501s.538.044.734.247c.081.071.196.202.371.299.684.433 1.151.559 1.375.469l.449-.18c.355-.206.718-.534 1.072-1.014.995-1.285 2.011-2.464 3.092-3.601.11.055.174.097.263.046.059-.034.106-.022.123.008l-.042.064c-.144.161-.152.284-.083.403.08.071.238.138.441.218.497.108.828.272 1.012.521.166.22.231.538.212.983-.091.526.619 4.695 2.146 12.535.122.758.312 1.635.618 2.643.215.783.498 1.409.801 1.866.132.16.264.321.426.464 2.441 1.63 4.452 1.969 6.021 1.063zm-6.538-25.747c-.212.043-.386-.053-.587-.332-.097-.102-.072-.195.016-.246.119-.069.195-.073.306-.019s.191.127.272.198c.119.208.111.331-.007.399zm-18.493-9.609c-.237.136-.389.146-.487.044-.167-.219.427-1.036 1.765-2.479 1.671-1.754 2.743-2.768 3.217-3.042l.089-.051c.355-.205.748-.55 1.203-1.129.443-.532.895-.911 1.309-1.15l.431-.21c.326-.188.6-.465.794-.813s.438-.608.734-.779c.474-.274.826-.279 1.085-.035.12.208.028.458-.34.71s-.612.511-.764.796-.591.617-1.271 1.01c-.677.47-.951.747-.883.865.115.131.031.259-.235.412l-.774.368c-.326.188-.452.38-.379.574s.035.335-.113.421c-.089.051-.178.102-.301.094-.135.039-.33.112-.567.249-.503.29-.972.64-1.419 1.095l-2.22 2.308c-.346.358-.637.605-.874.742zm25.047-18.961c-.385.223-.791.339-1.244.443-.424.086-.704.011-.819-.12-.051-.089-.026-.182.151-.284.237-.137.762-.322 1.516-.52.529-.109.817-.156.886-.038.017.03.017.03-.025.093-.114.145-.258.307-.465.426zm-3.432 45.12l.037-.14c-.004-.077-.001-.276-.019-.581.011-.322-.024-.657-.094-1.051l-.187-1.076a2.52 2.52 0 0 0-.257-.72l-.123-.007c-.104.572-.046 1.289.192 2.178.168.771.272 1.224.387 1.355.017.029.034.059.064.042zm-.548-4.025c.131-.115.065-.709-.093-1.802-.252-1.393-.519-2.266-.805-2.692-.08-.072-.097-.102-.127-.085-.118.069-.147.361-.085.878.098 1.128.262 1.822.48 2.131l.052.364c-.046-.012-.046-.012-.076.005s-.089.051-.084.127c.09.224.21.432.329.639.115.131.247.291.409.435zm-.231-2.314c-.034-.059-.038-.136-.026-.182-.017-.03-.005-.077-.022-.106.013-.047-.021-.106-.009-.153-.017-.029-.004-.076-.068-.118.056.165.031.258-.058.31-.03.017-.111-.055-.196-.203-.183-.249-.359-.622-.514-1.164-.082-.347-.108-.529-.066-.593.059-.034.169.021.314.134.286.427.483.906.528 1.393.149.19.163.419.117.682zm-.438-2.194c.089-.051.088-.327.073-.831-.045-.488-.093-.776-.144-.865-.166-.219-.298-.38-.426-.464-.029.017-.042.064-.084.127-.025.094-.05.187-.058.31l-.024.369c-.037.14-.033.217-.016.246s.069.119.107.254.108.254.159.343l.137.237c.132.16.2.278.276.274zm-9.101.163c.249-.183.6-.464.958-.869.27-.353.396-.544.362-.603-.017-.03-.123-.008-.3.094l-.457.303-.743.627c-.245.259-.325.463-.244.535.052.089.157.067.335-.035l.089-.052zm8.698-2.298c.113-.145.111-.696-.02-1.607l-.172-1.322c.06-.034.072-.081.085-.127-.012-.704-.086-1.174-.24-1.441-.166-.219-.252-.367-.286-.427-.315-.409-.524-.565-.672-.48-.089.051.001.276.224.66-.085.128-.121.544-.05 1.213.141 1.339.379 2.229.635 2.673.017.029.005.076.039.135.004.076.038.135.06.241s.056.165.073.195c-.012.047.005.076.039.136.132.16.196.202.255.168l.03-.017zm-6.892.505c.444-.256.549-.553.356-.955-.046-.013-.105.022-.165.056s-.148.085-.249.183a1.85 1.85 0 0 0-.312.417c-.067.157-.122.268-.041.339.052.089.204.08.411-.04zm7.609-7.944c.059-.035.131-.115.232-.213.084-.128.139-.238.147-.361.037-.14.033-.217-.001-.276l-.047-.012c-.111-.055-.293-.029-.5.091-.19.149-.351.281-.477.473s-.134.314-.083.403c.098.101.28.075.64-.054l.089-.051zm1.156-1.142c.178-.102.233-.213.118-.344-.167-.219-.358-.346-.523-.29-.148.086-.186.226-.172.455l.051.088c.15.19.319.211.526.091zm8.462-22.053c.266-.154.435-.409.535-.783s.116-.619.018-.72c-.052-.089-.128-.085-.246-.016l-.169.255c-.382.773-.524 1.21-.426 1.312.034.059.14.037.288-.048zm-14.727 3.135a3.48 3.48 0 0 0 1.051-1.12c.126-.191.316-.34.506-.49.237-.136.432-.209.643-.253.2.004.365-.052.454-.103.266-.154.316-.341.167-.531-.269-.397-.833-.348-1.632.113-1.095.632-1.809 1.242-2.129 1.782-.151.284-.137.513.029.733.149.19.437.142.793-.063l.118-.068zm29.697 23.545c.088-.051.355-.205.782-.491s.974-1.115 1.689-2.475c.315-.616.747-1.576 1.267-2.863.306-.768.499-1.393.607-1.889.078-.479.166-.806.245-1.01.097-.174.189-.425.294-.722.114-.145.264-.705.492-1.745.071-.356.104-.573.052-.661-.076.004-.173.178-.277.476-1.309 3.202-2.83 6.172-4.577 8.957-.03.017-.042.064-.084.127a2.45 2.45 0 0 1-.186.226c-.042.064-.114.145-.19.149-.059.034-.106.022-.157-.067-.078-.271.005-.674.32-1.29.597-1.292 1.115-2.104 1.584-2.453.215-.243.379-.574.474-1.024.063-.234.113-.42.227-.565 1.676-3.454 2.969-7.161 3.922-11.184.349-1.583.464-2.478.344-2.686-.059.035-.335.786-.817 2.209l-.364 1.078c-.001-.275.284-1.9.873-4.845.241-1.087.311-1.719.242-1.837-.017-.03-.017-.03-.046-.013-.119.069-.445 1.007-.946 2.875-.916 3.607-2.189 7.145-3.802 10.641-.886 1.814-1.858 3.48-3.026 4.944-.641.804-1.325 1.396-1.993 1.743-.521.261-1.02.352-1.559.308l-.199-.004c-.323-.011-.497-.108-.565-.226-.034-.059-.056-.165-.095-.301-.009-.152-.065-.317-.167-.495s-.252-.368-.367-.499c-.103-.177-.218-.308-.303-.456-.154-.266-.121-.483.103-.573l.165-.056c.03-.017.042-.064.025-.093 0 0-.034-.059-.098-.101s-.098-.102-.161-.144-.098-.101-.132-.16c-.428-.74-.426-1.215.006-1.425l.508-.214c.774-.368 1.609-1.245 2.511-2.555.168-.255.399-.744.71-1.436.663-1.449 1.105-2.256 1.312-2.376l.017.03c.188.325-.067 1.183-.747 2.602-.487 1.07-.941 1.925-1.387 2.656-.19.149-.406.392-.633.681l-.084.127c-.06.035-.131.116-.216.243-.101.098-.126.191-.092.251.017.029.111.054.246.016.288-.048.534-.033.649.098.128.085.268.122.446.02.088-.052.236-.137.397-.269 1.089-.984 2.039-2.757 2.779-5.236.409-1.341.328-2.439-.202-3.357-.085-.148-.149-.19-.238-.138-.059.034-.139.238-.268.628-.108.497-.23.764-.336.786l-.135.039c-.09-.224-.126-.559-.089-.975.044-.538-.009-.903-.128-1.11-.103-.178-.23-.262-.476-.278-.212.044-.404-.083-.574-.379-.213-.232-.384-.528-.572-.854-.196-.202-.528-.366-1.037-.427-.801-.09-1.572.079-2.287.413-1.354.663-2.431 1.6-3.214 2.842-1.122 2.226-1.679 4.679-1.671 7.358.016 1.806.367 3.577 1.088 5.371.128.36.299.656.47.952.188.326.406.634.687.985.299.38.809.717 1.536 1.087.552.273.964.508 1.317.778.336.24.714.417 1.092.593.408.159.947.204 1.65.192 1.501.002 2.624-.173 3.369-.524zm-6.639-11.362c-.225.09-.377.099-.463-.049-.051-.088-.077-.271-.044-.487.04-.615.227-1.315.563-2.101.47-1.1 1.039-1.823 1.695-2.123.325-.188.588-.143.725.094.256.444.162 1.17-.342 2.211-.66 1.249-1.36 2.087-2.134 2.455zm.811 4.071c.402-.193.68-.393.836-.602s.194-.348.16-.407c-.069-.119-.204-.08-.428.01-.148.085-.356.205-.605.388-.101.098-.139.239-.223.366-.067.157-.045.263-.011.322.017.03.093.025.271-.077zm21.042-1.493c.089-.051.355-.205.782-.491s.975-1.115 1.689-2.475c.316-.616.748-1.576 1.268-2.863.306-.769.498-1.393.606-1.889.079-.48.166-.806.246-1.01.097-.175.189-.425.293-.722.114-.145.264-.705.493-1.745.07-.356.103-.573.052-.662-.076.005-.173.179-.278.476-1.308 3.203-2.83 6.173-4.577 8.958-.029.017-.042.064-.084.127s-.114.145-.185.226c-.042.064-.114.144-.19.149-.06.034-.106.022-.158-.067-.077-.271.006-.674.321-1.29.596-1.292 1.114-2.104 1.583-2.454.215-.242.379-.574.475-1.023.062-.234.112-.421.226-.565 1.676-3.454 2.97-7.161 3.923-11.185.349-1.582.464-2.478.344-2.685-.059.034-.336.786-.817 2.208l-.364 1.079c-.001-.276.284-1.901.873-4.845.241-1.087.31-1.719.242-1.837-.017-.03-.017-.03-.047-.013-.118.069-.445 1.007-.945 2.875-.917 3.607-2.19 7.144-3.802 10.641-.887 1.814-1.859 3.48-3.026 4.944-.641.804-1.325 1.396-1.994 1.743a2.84 2.84 0 0 1-1.558.308l-.2-.004c-.322-.011-.496-.108-.565-.226-.034-.059-.055-.165-.094-.301-.009-.152-.065-.318-.168-.495s-.251-.368-.366-.499c-.103-.177-.218-.308-.304-.456-.153-.267-.12-.483.104-.573l.165-.056c.03-.017.042-.064.025-.093 0 0-.034-.059-.098-.102s-.098-.101-.162-.143-.098-.101-.132-.161c-.427-.74-.425-1.214.007-1.424l.507-.214c.775-.368 1.61-1.245 2.511-2.555.169-.255.4-.744.711-1.436.663-1.449 1.105-2.256 1.312-2.376l.017.03c.188.325-.067 1.183-.747 2.602a24.95 24.95 0 0 1-1.388 2.656c-.19.149-.405.391-.633.681l-.084.127c-.059.034-.131.115-.215.243-.101.098-.126.191-.092.25.017.03.11.055.246.016.288-.048.534-.032.649.099.127.084.268.122.445.019a2.72 2.72 0 0 0 .397-.268c1.09-.985 2.04-2.757 2.779-5.236.41-1.341.329-2.439-.201-3.357-.085-.148-.149-.19-.238-.139-.059.035-.139.238-.269.629-.108.497-.229.764-.335.786l-.136.039c-.09-.225-.125-.559-.089-.975.044-.539-.008-.903-.128-1.11-.102-.178-.23-.262-.476-.278-.212.043-.403-.083-.574-.379-.213-.232-.384-.528-.572-.854-.196-.202-.527-.366-1.036-.428-.802-.089-1.573.08-2.288.413-1.353.664-2.43 1.601-3.213 2.842-1.122 2.227-1.679 4.68-1.672 7.359.017 1.806.368 3.577 1.088 5.371.129.36.3.656.471.952.188.325.406.634.687.985.298.38.809.717 1.535 1.087.553.273.965.508 1.318.778.336.24.714.417 1.092.593.408.159.946.203 1.65.192 1.501.002 2.624-.173 3.368-.524zm-6.639-11.362c-.224.09-.376.099-.462-.049-.051-.089-.077-.271-.044-.487.039-.615.227-1.315.563-2.101.469-1.1 1.039-1.824 1.694-2.123.326-.188.589-.143.726.094.256.444.162 1.169-.342 2.21-.66 1.25-1.36 2.088-2.135 2.456zm.811 4.071c.402-.193.681-.393.837-.602s.194-.348.159-.408c-.068-.118-.203-.079-.428.011-.148.085-.355.205-.604.388-.102.098-.139.238-.223.366-.068.157-.046.263-.012.322.017.03.094.025.271-.077zm13.351-11.261c-.001-.275.032-.492.082-.678.025-.094.033-.217.041-.34s-.031-.258-.057-.44c-.065-.318-.083-.623-.089-.975.011-.322.056-.585.124-.742.042-.064.054-.111.096-.175.072-.081.127-.191.164-.331.055-.111.092-.251.096-.45-.027-.182-.006-.352-.003-.551s-.006-.352-.015-.504.033-.217.033-.217c-.086-.423-.088-.699-.003-.827.037-.14.096-.174.113-.144.064.042.128.084.179.173l.017.029c.064.043.081.072.128.085.034.059.051.088.115.131.017.029.034.059.022.105-.029.293-.057.586-.064.984-.011.323-.01.598-.038.891s-.091.526-.205.671c-.067.157-.164.331-.201.471-.05.187-.058.31-.066.433s-.004.199-.004.199l.014.229c.026.182.053.364.066.593.044.212.057.441.024.657.01.153-.011.322.011.428.009.153.001.276-.007.399.009.152-.041.339-.091.526-.033.216-.04.615.056 1.191.067.593.239 1.165.504 1.761.278.55.535.994.769 1.332.149.191.252.368.257.444.051.089.004.077-.14-.037-.116-.131-.265-.321-.495-.583-.183-.249-.401-.558-.606-.913-.239-.414-.402-.833-.531-1.193-.099-.377-.13-.636-.122-.759.003-.199-.028-.457-.075-.745-.065-.318-.088-.699-.099-1.128zm1.279-7.013c.089-.051.165-.056.241-.061a.19.19 0 0 1 .175.097c.034.059.021.106-.004.199-.042.064-.084.128-.173.179a.65.65 0 0 1-.271.078c-.093-.025-.14-.038-.174-.097s-.039-.136.003-.199.114-.145.203-.196zm1.401 11.86c-.49-.507-.854-1.48-1.03-2.878a25.05 25.05 0 0 1-.18-4.277c.065-1.459.2-2.524.405-3.194.311-.693.809-1.06 1.508-1.148.746-.075 1.307.075 1.758.446.256.444.468 1.427.56 2.953s.001 3.078-.243 4.639c-.272 1.578-.806 2.636-1.584 3.203a1.22 1.22 0 0 1-.557.401c-.178.103-.382.023-.637-.145zm8.882-7.654c-.245-.766-.439-1.443-.54-2.096a13.52 13.52 0 0 0-.496-1.884c-.128-.36-.223-.661-.237-.89a2.42 2.42 0 0 1-.019-.58c.016-.246-.007-.628-.094-1.051a3.7 3.7 0 0 1-.113-.606c-.009-.153-.001-.276.007-.399.033-.216.002-.474-.076-.745-.215-.784-.35-1.495-.408-2.212l-.144-.864-.065-.317c-.043-.212-.069-.394-.096-.577s-.018-.305.066-.432c.055-.111.161-.132.36-.129.263.045.428-.01.453-.104s.004-.199-.111-.33-.26-.245-.464-.324c-.064-.043-.157-.068-.221-.11-.127-.084-.221-.109-.285-.151-.046-.013-.063-.042-.08-.072.029-.017.042-.064.071-.081.059-.034.148-.085.203-.196.072-.08.156-.208.206-.395s.066-.432.03-.767c-.032-.534-.102-1.204-.195-1.979l-.272-3.001c-.077-1.021-.097-1.877-.045-2.539l.145-1.662c.025-1.12.147-2.138.304-3.097.146-.636.33-1.137.477-1.498.201-.472.284-.875.232-1.239-.082-.347-.432-.817-1.096-1.42-.162-.143-.277-.274-.328-.363s-.073-.195-.09-.224c.012-.047-.005-.077-.022-.106s-.034-.059-.081-.072c-1.21-.524-2.406-.544-3.621-.119-.481.396-.859 1.246-1.074 2.514-.227 1.315-.361 2.656-.414 4.068-.041 1.365-.04 2.391.013 3.031l.288 3.78c.115 1.908.253 3.446.386 4.632.088.699.133 1.462.196 2.255.095 1.326.228 2.513.444 3.572l.438 2.194c.009.153.048.288.087.424-1.151-.559-2.348-.855-3.62-.87-1.4-.1-2.493.057-3.275.548-.752.474-1.372 1.384-1.828 2.713-.509 1.715-.644 3.806-.387 6.302.227 2.513.715 4.52 1.468 6.098.176.373.428.74.692 1.061 1.799 2.159 4.083 2.971 6.824 2.454 2.071-.446 3.383-1.795 3.937-4.049.03-.017.03-.017.013-.047.075-.28.184-.501.268-.628.114-.145.301-.095.543.12.154.267.338.516.508.812.423.664.863 1.357 1.362 2.016.516.689 1.006 1.195 1.528 1.486.413.235.808.441 1.233.63l.96.432a7.69 7.69 0 0 0 .73.171c.246.016.568.027 1.043.029.369.024.696.112.917.221.11.054.22.109.314.134a.49.49 0 0 0 .241-.06c.207-.12.355-.205.461-.227.077-.005.136-.039.119-.068s-.052-.089-.132-.161l-.018-.03c-2.094-1.987-3.612-3.795-4.505-5.41s-1.733-3.617-2.549-5.988c-.167-.495-.335-.99-.566-1.528zm-3.6-25.785a5.02 5.02 0 0 1-.102-.928c.029-.293.074-.556.158-.684.025-.093.097-.174.198-.272.072-.081.127-.191.211-.319a.8.8 0 0 0 .083-.403c.02-.17-.006-.352-.02-.581-.043-.211-.04-.411-.095-.576-.01-.152-.031-.258-.031-.258l-.186-.801.089-.051c.046.013.106-.022.182-.026.059-.034.135-.039.212-.044s.169.021.246.016c.14.038.238.139.319.211s.132.16.136.237-.084.127-.237.136c-.059.035-.118.069-.101.098-.012.047.022.106.039.136.004.076.022.106.009.152.009.153-.011.323-.032.492l-.085.878c-.045.263-.108.497-.222.641-.084.128-.121.268-.159.408s-.045.263-.036.416c-.008.123-.016.246-.012.322s.039.136.039.136-.012.046-.02.169.001.276-.002.475-.007.399-.027.568l-.015.522c-.008.123-.033.216-.046.263l-.037.14c-.03.017-.042.064-.055.11s-.037.14-.045.263.001.276-.002.475c-.029.293.003.827.045 1.514.028.733.104 1.479.137 2.288l.141 2.09.067.869s-.022-.106-.112-.331c-.06-.241-.137-.512-.249-.842-.065-.318-.16-.618-.208-.907s-.074-.47-.066-.593c.038-.14.019-.445-.008-.903.002-.475-.043-.962-.062-1.543-.045-.487-.055-.915-.066-1.343a4.52 4.52 0 0 1-.008-.903c-.001-.276.015-.522.065-.709.02-.169.041-.339.032-.491s-.036-.335-.062-.517zm-.377 32.501c.03-.017.042-.063.067-.157a9.8 9.8 0 0 1 .244-.535c.109-.221.206-.395.303-.569s.168-.256.244-.26c.111.054.132.16.112.33.009.153-.041.339-.091.526s-.117.344-.172.454c.017.03-.012.047-.025.094-.037.14-.104.297-.179.577a12.15 12.15 0 0 1-.603 1.69c-.256.582-.543.906-.861.971.053-.386.174-.93.396-1.571.205-.67.389-1.172.565-1.55zm1.299-21.47c-.14-.038-.221-.109-.259-.245-.009-.152-.019-.305.031-.492.021-.169.088-.327.113-.42.03-.017.064.042.115.131s.073.195.112.33.031.259.023.382a.53.53 0 0 1-.135.314zm3.933-22.241c-.385.222-.614.236-.699.088-.103-.178.024-.369.409-.591.355-.205.613-.236.716-.059.085.148-.071.357-.426.562zm5.737 9.594l-.253-2.42c-.088-.699-.243-1.241-.465-1.626-.308-.533-.428-1.015-.409-1.461.05-.186.006-.398-.147-.664-.176-.373-.258-.72-.306-1.008-.035-.335-.125-.559-.245-.766l-.085-.148c-.451-.371-.728-.646-.865-.883l-.227-.461-.073-.194c-.068-.119-.178-.173-.272-.198-.14-.038-.263-.046-.403-.083-.258.03-.416-.037-.501-.185l-.103-.177.131-.115.284-.125c.419-.163.75.001 1.024.475l.359.622a3.71 3.71 0 0 0 .533.718c.196.202.409.435.545.672l.176.372a3.31 3.31 0 0 0 .227.461c.051.089.068.118.055.165.052 1.115.312 2.385.763 3.782.176.373.241.69.242.966.028.458.035 1.085.021 1.882l-.006.399zm6.721 33.653c2.714-1.725 4.141-5.746 4.33-12.051 0-2.803-.506-5.115-1.532-6.891-.735-1.273-1.862-2.201-3.412-2.766-1.838-.518-3.423-.392-4.755.377-.977.564-1.825 1.488-2.527 2.801-.013.047-.055.111-.08.204a26.99 26.99 0 0 0-.34.71c-.072.08-.114.144-.173.178l-.061-.241c-.033-.81.007-1.425.056-1.887.065-.433.258-1.057.564-1.825 1.942-5.66 2.437-11.432 1.457-17.3l-.221-1.135c-.153-1.017-.441-1.995-.924-2.9-.427-.74-.863-1.357-1.323-1.881-.698-.662-1.437-.985-2.23-.922s-1.44.239-1.943.53c-1.303.752-1.983 2.171-2.071 4.274-.069 1.658-.041 3.142.117 4.51l.251 2.895.525 5.695c.083.623.142 1.339.209 2.208.104 1.479.285 2.954.495 4.411l.044.488c.127.834.319 1.986.617 3.393a131.44 131.44 0 0 0 1.078 4.942l.156.818c.223 1.411.545 2.448.938 3.129.428.74 1.061 1.085 1.905 1.11 1.144-.068 2.004-.288 2.566-.613.829-.479 1.231-1.697 1.129-3.651l.041-1.09c.14-2.014.716-3.886 1.748-5.587.336-.51.712-.885 1.097-1.107.313-.141.615.04.905.543.496.858.756 2.129.751 3.829.021 1.882-.066 3.235-.267 3.982-.291 2.024-.962 3.871-2.039 5.559-.447.731-.936 1.25-1.469 1.558-1.036.598-2.181.391-3.513-.616-.701-.463-1.126-.652-1.262-.613l-.207.119c-.385.222-.353.756.126 1.585.188.326.533.719 1.018 1.149 1.132 1.004 2.483 1.566 4.035 1.657 1.183.066 2.213-.133 3.071-.629l.545-.354c.722-.733 1.456-2.538 2.202-5.415.425-1.588.687-2.844.797-3.815.271-1.854.53-2.911.757-3.2.214 1.258.165 2.746-.17 4.558-.096.45-.162.883-.21 1.345-.16 2.184-.821 4.184-2.013 6.016l-.789.89c-.51.689-.716 1.084-.664 1.173s.263.045.665-.147zm-9.608-25.869l-.051-.089c-.393-.681-.676-3.359-.867-8.064.008-1.149-.022-2.158-.136-3.039-.032-1.285.003-1.976.092-2.027.03-.017.047.012.064.042.86.806 1.416 2.932 1.699 6.36-.026.844-.101 2.15-.288 3.876-.17 1.756-.357 2.732-.513 2.941zm.653 3.728c-.129-.36.004-.95.411-1.817l.177-.378c.201-.471.466-.901.731-1.33-.017-.03-.017-.03.013-.047.075-.28.099-.649.029-1.043l-.065-.318c-.004-.076.021-.169.016-.245s-.009-.153.003-.2l-.037-.886c.05-.186.07-.356.091-.526.007-.123.015-.246.04-.339s.05-.187.046-.263l.037-.14c.03-.017.05-.187.108-.497.05-.186.105-.297.135-.314s.046.012.081.072c.085.148.128.359.083.623-.126.191-.15.56-.025 1.119.039.135.031.258-.024.369s-.092.25-.083.403c.014.229-.035.691-.104 1.323-.033.216-.275 1.027-.778 2.344-.486 1.346-.767 2.021-.885 2.09zm2.725 11.214l-.034-.06c-.018-.029-.014-.228-.003-.551-.017-.029-.004-.076.003-.199.025-.093.051-.187.058-.31s.033-.216.046-.263.042-.064.042-.064l.03-.017.018.306c.014.228.01.428-.01.597-.033.217-.071.357-.113.421.005.076-.037.14-.037.14zm.212-2.846c-.034-.059-.031-.258.022-.645.129-.666.309-1.243.557-1.702.021.106-.02.445-.14.988-.208.87-.35 1.308-.439 1.359zm18.768 1.951c.296-.171.482-.396.633-.681.45-.93.674-2.046.655-3.377-.042-.962.043-1.84.255-2.634.143-.437.196-.824.178-1.129-.031-.258-.062-.517-.118-.682s-.065-.317-.01-.428c.811 1.268 1.633 2.214 2.514 2.851.851.653 2.107.914 3.738.801.911-.131 1.665-.329 2.287-.688 1.243-.718 2.075-2.422 2.495-5.112l.385-1.998c.364-2.105.461-3.305.307-3.571-.034-.059-.098-.101-.157-.067-.161.132-.424 1.112-.789 2.941l-.493 2.495a10.47 10.47 0 0 1-1.583 3.479c2.151-7.28 2.911-12.731 2.187-16.378l-.06-.241-.047-.013c-.059.034-.092.251-.099.649l-.182 2.829c-.049.462-.107.772-.191.899-.071-.669-.105-1.479-.13-2.411-.014-2.281-.195-3.756-.554-4.377-.034-.059-.08-.072-.097-.102s-.035-.059-.064-.042l-.07.632c-.194 1.099-.357 2.457-.414 4.068-.429 4.589-1.294 8.285-2.626 11.106-.285.599-.592 1.093-.956 1.421-.592.341-1.076.187-1.452-.465s-.655-1.476-.854-2.506c-.191-.876-.287-1.452-.322-1.787-.017-1.056.013-2.849.167-5.385-.004-.827-.112-1.356-.283-1.652-.257-.444-.661-.803-1.243-1.059-1.041-.504-1.931-.542-2.701-.098-.562.325-.92 1.005-1.013 2.006-.005.674-.118 1.094-.384 1.248-.148.085-.407.116-.729.105-.081-.072-.45-.096-1.052-.182-.831-.073-1.585.126-2.325.553-.888.513-1.541 1.363-2.019 2.586l-.466 1.177c-.159.408-.264.705-.36.879-.08.204-.16.408-.21.594-.062.234-.053.387.015.505.052.089.02.581-.099 1.399-.257 1.333.023 3.46.829 6.428.32 1.237.77 2.358 1.334 3.335.789 1.162 1.844 1.895 3.139 2.292 1.391.223 2.413.146 3.034-.213zm11.8-18.731c-.029.017-.046-.013-.064-.043-.034-.059-.072-.194-.052-.364.011-.322.049-.462.108-.496.03-.018.03-.018.064.042s.06.241.061.517c-.062.233-.087.326-.117.344zm-6.248 9.685l-.442-.218-.171-.296a.11.11 0 0 1 .05-.187l.059-.034c.17.02.315.134.434.341s.159.343.07.394zm-6.857 4.393l-.237.137c-.237.136-.526-.091-.885-.713-.581-1.006-.934-2.302-1.073-3.84-.112-1.356.01-2.65.288-3.876.213-.794.477-1.499.826-2.056s.666-.898.992-1.086c.207-.119.33-.111.416.037.051.089.159.618.295 1.605.237 1.915.315 3.212.216 3.861l-.023.369c-.027 1.595-.139 3.041-.401 4.297-.153.759-.283 1.15-.414 1.265zm5.927-5.593c-.088.051-.255-.168-.511-.612l-.466-.876c-.12-.207-.222-.385-.337-.516s-.184-.249-.235-.338c-.171-.296-.155-.542.077-.755.059-.034.08-.204.015-.521-.079-.547-.043-.962.075-1.306.042-.064.045-.263.014-.522s-.049-.563-.021-.856c.05-.187.079-.48.09-.802-.026-.182-.087-.423-.147-.665s-.057-.44-.054-.64l.218-.717.233.062c.11.055.221.11.255.169.051.089.018.305-.035.691-.144.912-.189 2.201-.089 3.88.086 1.174.234 2.114.492 2.834.394.956.545 1.422.426 1.49zm5.378 3.368a.73.73 0 0 1-.406.116c-.093-.025-.157-.067-.174-.097l-.035-.059c-.034-.059.038-.14.152-.285.207-.119.377-.099.496.108.022.106-.02.17-.033.217zm-14.309-1.132c-.046-.013-.093-.025-.127-.084-.171-.296-.234-1.089-.253-2.42-.02-1.607.167-2.583.5-2.893l.03-.018c.034.06.015.505-.041 1.366-.076 1.781-.101 2.9-.049 3.264.04.411.024.657-.06.785zm16.725-14.234c-.016-.78-.016-.78 0 0h0zm9.682 10.275c.25-.183.469-.349.672-.545a10.52 10.52 0 0 0 1.008-2.082c.222-.641.508-1.24.828-1.78.302-.57.491-.994.566-1.275.088-.326.104-.572.107-.772-.014-.228.032-.492.166-.806.495-1.193.872-2.319 1.053-3.371.146-.636.351-1.307.538-2.007-.017-.03.033-.217.15-.561.088-.327.23-.764.355-1.231a28.5 28.5 0 0 0 .359-1.43c.112-.42.141-.713.148-.836-.009-.152-.013-.229-.03-.258s-.064-.042-.094-.025c-.219.166-.45.655-.735 1.529l-.727 2.433c-.863 3.221-1.496 4.928-1.893 5.197-.029.017-.076.005-.093-.025s-.009-.152.011-.322c.373-1.952.903-3.837 1.573-5.684.62-1.66.988-2.938 1.183-3.761.117-.344.167-.531.116-.62-.005-.076-.107-.254-.295-.579-.168-.496-.089-.975.206-1.421.277-.476.399-.744.348-.833-.017-.03-.081-.072-.204-.08a.71.71 0 0 1-.199-.003c-.094-.025-.14-.037-.158-.067-.136-.237-.201-.555-.148-.941l.015-.521c-.009-.153-.019-.305-.087-.424-.034-.059-.127-.084-.187-.05-.101.098-.227.29-.349.557-.286.599-.432.96-.453 1.13l-1.5 4.852c-1.219 3.427-2.646 6.698-4.234 9.825-.526.935-1.129 1.599-1.835 2.086-.516.337-1.003.382-1.445.163-.132-.16-.247-.291-.333-.439-.119-.208-.218-.584-.356-1.097-.295-1.33-.516-2.465-.605-3.44s.024-2.145.353-3.558c.565-1.55 1.659-2.458 3.248-2.783.523-.46.729-.855.66-1.249s-.113-.606-.164-.695c-.291-.503-.7-.938-1.286-1.27-.749-.476-1.419-.681-2.042-.597-.666-.129-1.437.04-2.389.511-.905.483-1.707 1.419-2.37 2.867-.512 1.164-.786 2.467-.792 3.892-.026 2.895.297 4.959.875 6.164l1.073 2.064c1.162 2.013 2.942 3.591 5.363 4.64 1.422.481 2.791.322 4.029-.472zm-.518-1.24c-.212.044-.288.048-.305.019s.012-.047.084-.128c.161-.132.228-.289.189-.425-.009-.152-.014-.228.045-.263.435-.409.931-1.326 1.489-2.753l.582-1.521c.227-.565.42-.913.568-.999.119-.068.212-.043.28.075.171.296-.18 1.328-1.088 3.037-.782 1.517-1.397 2.503-1.844 2.958zm11.935-1.681c.165-.055-.19-.876-1.049-2.433a16.4 16.4 0 0 1-1.292-3.398l-.3-.932c-.284-.901-.376-1.401-.304-1.482l.131-.115c.148-.086.704-.012 1.638.238a49.77 49.77 0 0 0 4.825 1.043c2.197.389 3.99.143 5.44-.694.71-.41 1.373-1.108 1.911-2.09l.913-1.632c.273-.552.378-.85.326-.938-.017-.03-.046-.013-.106.021-.296.171-.57.448-.835.877-.399.744-1.215 1.451-2.369 2.118-.237.137-.402.192-.419.163-.005-.076.122-.268.409-.591l1.236-1.346c1.18-1.51 1.981-3.472 2.373-5.869s.628-4.586.721-6.613c-.006-.352.035-.691.076-1.03.177-1.129.173-2.231-.091-3.302-.099-.377-.186-.801-.184-1.276.113-.42.073-.831-.132-1.186-.051-.089-.115-.131-.174-.097-.148.086-.369 1.002-.679 2.721l-.502 2.618c-1.11 5.732-2.297 9.693-3.618 11.916-.388.422-.798.737-1.242.993-1.066.616-2.23.854-3.524.733-1.365-.041-2.159-.254-2.398-.668-.205-.355-.131-.911.175-1.68l.876-2.242c.666-1.648 1.146-2.595 1.442-2.766l.076-.005c.017.03.017.03.004.076s-.025.094-.079.204l.227-.289a5.21 5.21 0 0 1-.225.84l-.839 2.853c.517-.062 1.08-1.137 1.736-3.213s1.023-3.629 1.158-4.694l.074-.556a14.31 14.31 0 0 0 .179-1.603c.045-.539-.187-1.076-.677-1.582a3.31 3.31 0 0 0-1.75-.845c-.416-.036-.733.029-.97.166-.267.153-.511.413-.734.779-.303.569-.716 2.11-1.256 4.592-.456 2.355-1.348 4.844-2.676 7.465-.499 1.118-.95 1.773-1.305 1.978-.119.068-.165.055-.217-.033-.136-.237-.164-.695-.065-1.344.103-.573.115-.895.064-.984s-.158-.067-.352.006c-.03.017-.06.034-.077.005l.338-.235c.368-.252.495-.443.473-.549-.051-.089-.068-.119-.039-.136a1.63 1.63 0 0 0 .174.097c.081.072.158.067.246.016s.102-.098.033-.216a.3.3 0 0 0-.115-.131c-.034-.059-.081-.072-.115-.131-.171-.296-.066-1.619.301-3.923l.395-2.596c.071-.357.141-.713.271-1.104.117-.344.141-.713.059-1.06-.095-.301-.092-.5.086-.602.186-.226.331-.863.449-1.957.054-.386.023-.644-.063-.792s-.06-.242.088-.327c.185-.226.289-.798.327-1.689.024-.369.018-.721-.047-1.038-.048-.289-.027-.458.074-.556.118-.068.161-.132.126-.191-.017-.03-.063-.043-.11-.055-.064-.042-.128-.084-.162-.144-.068-.118-.014-.228.105-.297.059-.034.089-.051.195-.073.093.025.123.008.182-.026.089-.051.114-.145.028-.293-.056-.165-.066-.593.033-1.242.052-.662.099-1.399.113-2.197-.016-.78.032-1.242.087-1.353.089-.051.079-.479.045-1.289-.063-.793-.07-1.42-.004-1.853.054-.386.052-.662.001-.75l-.017-.03c-.068-.118-.043-.212.088-.327.067-.157.075-.28.006-.398l-.034-.059c-.102-.178-.094-.301-.006-.352s.08-.204-.015-.504c-.073-.195-.122-.758-.177-1.674-.007-.627-.051-1.115-.21-1.458-.055-.165-.065-.318-.069-.394.016-.246-.062-.517-.199-.754-.273-.474-.712-.891-1.269-1.241-.301-.181-.497-.383-.583-.532a.96.96 0 0 0-.374-.376c-1.139-.605-2.301-.566-3.455.1-.563.325-1.047.92-1.489 1.728-.955 1.696-1.378 2.808-1.299 3.355.102.178.103.453-.009.873a1.24 1.24 0 0 1-.147.361c-.215.243-.391 1.647-.516 4.165-.09 1.552-.062 3.036.079 4.375.051 2.891.158 4.921.29 6.108l.286 2.203c.112 1.356.754 5.682 1.897 12.994.115.882.147 1.416.126 1.585-.037.14-.011.322.074.47l.035.06c.068.118.15.465.297 1.13.066.594.136.988.256 1.195l.08.071c.069.119.078.271.104.454.218 1.334.589 2.659 1.065 3.963.15.466.331.914.553 1.299.41.711.887 1.264 1.368 1.618.693.586 1.488 1.074 2.355 1.482.896.39 1.44.51 1.706.357l.059-.035zm-2.771-46.431c-.052-.089-.108-.254-.138-.512a.26.26 0 0 1-.027-.182l.025-.093-.017-.03.111.055c.085.148.094.301.103.453s-.015.246-.057.31zm-3.29 18.16l-.03.017c-.059.034-.123-.008-.191-.127s-.095-.3-.079-.546c.08-.204.071-.357-.015-.505-.102-.177-.184-.524-.233-1.088-.011-.428-.088-.699-.157-.818l-.051-.088c-.068-.119-.041-.687.081-1.705.062-.509.061-.785.026-.844-.119-.207-.08-1.848.097-5.028.062-1.26.291-3.05.671-5.4.275-1.027.531-1.609.798-1.763.059-.034.105-.022.123.008.102.178.172.572.179 1.199l-.015.522c.017.03.017.03-.012.047-.029 2.069-.012 3.125.022 3.184.086.148.095.301.045.487s-.186 2.002-.396 5.399c-.06.784-.083 1.429-.085 1.904a38.71 38.71 0 0 1-.343 2.96c-.18 1.328-.351 2.058-.435 2.186zm-2.919-9.09c-.059.034-.106.022-.14-.037-.017-.03-.034-.059-.022-.106l.038-.14c.012-.047-.005-.076.025-.093s.093.025.144.114c.069.118.044.212-.045.263zm.007 4.456c-.03.017-.076.005-.11-.055-.073-.194-.132-.91-.129-2.136-.014-1.254.026-1.869.115-1.921.029-.017.029-.017.046.013.035.059.073.195.117.406-.004.199.052.364.091.5s.06.241.077.271c.035.059.028.458-.003 1.225s-.079 1.23-.099 1.4-.075.28-.105.297zm.198 3.556c-.029.017-.029.017-.047-.012-.119-.208-.139-.788-.105-1.755.024-.369.044-.539.074-.556l.017.03c.103.177.156.817.144 1.89.014.229-.024.369-.083.403zm1.147.483c-.03.017-.076.004-.111-.055l-.038-.136c-.056-.165-.112-.33-.18-.448s-.073-.195.016-.246.186.05.306.257c.051.089.102.178.124.284s-.02.169-.033.216c-.042.064-.054.111-.084.128zm.139.788l-.089.051c-.088.051-.135.039-.246-.016-.068-.118-.013-.229.135-.314s.254-.107.305-.019c.068.119.043.212-.105.298zm-.842 1.275l-.03.017c-.059.034-.093-.025-.191-.126-.222-.385-.268-1.148-.15-2.242l.047.012c.017.03.021.106.056.165.004.077.073.195.145.39.121.483.208.906.167 1.246.006.351-.015.521-.044.538zm.901.467c-.03.017-.077.004-.145-.114-.171-.296-.167-.495-.019-.581.029-.017.076-.004.093.025s.051.089.073.195-.003.199.018.305.009.153-.02.17zm-.644 1.003l-.06.034c-.177.103-.3.095-.415-.036a.25.25 0 0 1 .1-.374c.237-.136.406-.116.509.062.051.089.026.182-.134.314zm3.583 6.89c-.03.017-.076.005-.111-.054-.119-.208-.172-.572-.174-1.123.003-.199.024-.369.095-.45s.234-.963.485-2.647c.172-1.205.486-3.123.953-5.8.359-2.181.639-4.158.762-5.926.077-.755.067-1.183.045-1.289-.068-.118-.045-.763.051-1.963s.127-1.968.121-2.32c-.035-.335-.029-.733-.009-1.178s-.012-.704-.046-.763l-.034-.059c-.069-.118-.073-.195-.002-.276.089-.051.138-.514.117-1.37l-.088-1.725c-.079-.547-.097-.852.051-.937l.076-.005c.14.038.268.122.302.181.068.118.048.288-.015.522s-.07.356-.036.416c.232.537.362 1.173.407 1.936.023.381-.005.674-.068.907-.118.068-.112.42-.029 1.043.113.606.14 1.064.053 1.39-.125 1.493-.168 2.307-.1 2.425l.231.262c.034.059.004.076-.026.093l-.118.068c-.118.068-.168.255-.12.543.065.318.061.517-.023.645-.03.017-.03.017-.013.047.052.089.116.131.239.139.14.038.203.08.22.109l.018.03-.06.034-.266.154c-.207.12-.317.341-.281.675.016.78-.154 2.536-.57 5.302-.16 1.158-.2 1.773-.149 1.862s.027.182-.058.31c-.148.085-.273.552-.387 1.447-.162.883-.176 1.404-.074 1.582.051.089-.003.199-.147.361-.16.132-.356.955-.633 2.457-.314 1.918-.5 2.894-.589 2.945zm-3.069-3.674c-.059.034-.106.021-.157-.068l-.068-.118c-.005-.076-.039-.135-.044-.212.013-.046-.004-.076.025-.093.06-.034.14.037.226.185s.107.254.018.306zm4.098 16.736c-.03.017-.123-.008-.204-.08-.137-.237-.236-.613-.344-1.143-.091-.5-.195-.953-.354-1.296-.153-.266-.335-.99-.56-2.202l-.231-1.287c-.135-.712-.234-1.089-.268-1.148-.085-.148-.112-.33-.066-.593.062-.234.13-.391.189-.425.029-.017.127.084.247.291.171.296.253.644.293 1.055.01.428.024.657.041.686.107.254.172.572.237.889.027.183.065.318.104.454l.005.076a2.18 2.18 0 0 0 .253.643l.2.279c.051.089.086.148.056.165s-.059.034-.042.064c-.097.174-.066.433.046.763.085.148.128.36.159.618.022.106.056.165.078.271.004.076.056.165.107.254l.085.148.078.271c-.114.145-.088.327-.044.539.01.428-.006.674-.065.708zm16.427-19.193c-.046-.013-.063-.043-.098-.102l-.09-.224c-.06-.241-.04-.411.049-.462.03-.017.03-.017.077-.005.017.03.08.072.097.101.086.148.095.301.058.441s-.063.233-.093.251zm-.341-4.421c-.03.017-.047-.012-.064-.042-.034-.059-.056-.165-.048-.288.051.089.102.178.09.224l.022.106zm.23 15.575c.118-.068.27-.353.454-.854.18-.577.233-.963.131-1.141-.069-.118-.179-.173-.327-.088-.178.103-.312.417-.403.943-.138.514-.132.866-.012 1.073.051.089.098.101.157.067zm.593-2.118c.148-.085.268-.629.314-1.642.026-.844-.006-1.378-.108-1.555-.017-.03-.034-.06-.064-.043-.047-.012-.076.005-.076.005-.089.051-.147.361-.204.946l-.072.832c-.095.725-.097 1.2.006 1.377.051.089.115.131.204.08z" fill="#535353"/><path d="M800.84 74.091l-.693-.654-.127-.073c-.106-.061-.22-.155-.356-.262s-.229-.189-.332-.304c-.093-.082-.111-.149-.075-.212.058-.051.049-.085-.014-.121s-.139-.052-.257-.092-.269-.071-.417-.156c-.161-.064-.296-.171-.408-.32-.06-.091-.208-.177-.377-.274-.203-.089-.456-.235-.695-.457-.093-.082-.165-.152-.25-.201-.063-.037-.115-.094-.169-.098-.064-.037-.169-.098-.263-.18-.114-.094-.247-.255-.452-.486a2.37 2.37 0 0 0-.28-.247l-.399-.286c-.148-.085-.287-.138-.363-.153-.096-.028-.142.002-.115.102.015.121-.043.172-.195.141-.142.002-.314-.041-.538-.142-.202-.089-.402-.232-.622-.387-.199-.143-.341-.338-.461-.52-.066-.179-.135-.303-.195-.395-.027-.1-.078-.158-.099-.17-.03-.046-.03-.046-.043-.024 0 0-.012.021-.003.055-.012.021-.015.076-.027.097.008.033-.004.054-.049.085-.013.021-.034.009-.088.006-.291-.083-.641-.257-1.031-.51-.368-.241-.603-.517-.662-.805-.048-.112-.151-.228-.295-.368s-.302-.259-.462-.323c-.181-.077-.269-.071-.352.023s-.279.093-.59-.003-.632-.224-.995-.377c-.426-.19-.746-.318-.973-.365-.66-.127-1.144-.266-1.443-.382a1.24 1.24 0 0 1-.637-.509c-.095-.224-.206-.57-.298-1.046-.009-.033.037-.063.158-.078.13.019.273.016.415.014l.448.005c.109.007.155-.023.158-.078-.009-.033-.081-.103-.208-.177l-.456-.235-.508-.293c-.169-.098-.241-.168-.272-.213-.262-.913-.263-1.449-.01-1.641s.612-.182 1.114.023l1.486.745.381.22 3.816 2.034.084.049c.106.061.224.101.351.174.139.052.266.125.405.177s.223.101.278.104c.003-.055-.024-.154-.132-.358-.087-.191-.216-.407-.375-.668-.779-1.239-1.238-2.349-1.43-3.334-.205-.964-.066-2.181.392-3.608.352-.952.731-1.804 1.189-2.499l1.587-2.213.201-.251c-1.092-2.209-1.641-4.189-1.678-5.931-.059-1.754.561-3.707 1.81-5.918l.036-.063a6.04 6.04 0 0 1 .933-1.322c.045-.03.103-.081.173-.154.058-.051.095-.115.131-.178.554-.667 1.169-1.242 1.876-1.736l.632-.509c.55-.415 1.118-.764 1.737-1.055.519-.264 1.029-.562 1.543-.914.045-.03.124-.069.194-.142a1.79 1.79 0 0 1 .295-.168c.079-.039.145-.057.2-.054s.23-.008.53-.088l1.058-.319.234-.062c.245-.084.512-.155.767-.206.288-.059.539-.055.778-.03.042.024.076.016.109.007a.43.43 0 0 0 .146-.057c.079-.039.191-.087.337-.144.133-.036.363-.044.636-.028.293.029.59.003.899-.044a7.61 7.61 0 0 1 .879-.057c5.55.103 10.162 2.174 13.865 6.258l.726.842c.193.252.317.38.338.392.033-.009.144.14.346.425.181.273.4.626.662 1.002.331.501.634 1.099.955 1.764a23.78 23.78 0 0 1 .709 1.847c.173.579.238.955.204 1.161-.049.085-.05.281-.036.599s.037.669.068 1.054c.044.364.054.736.068 1.054.002.339-.011.557-.051.675s-.059.248-.09.399c.003.142-.016.272.011.373.013.318-.025.775-.094 1.383a8.82 8.82 0 0 1-.42 1.703c-.175.547-.416.916-.698 1.063-.17.099-.252.193-.271.323s.017.264.041.418c.065.179.065.376.021.548-.034.206-.232.402-.593.588-.282.147-.455.301-.511.494-.043.172-.065.357-.054.533.015.121.008.23.002.339-.028.097-.077.181-.159.275l-.058.051c-.069.072-.152.166-.234.259a.81.81 0 0 0-.171.296c-.015.076-.085.148-.167.242a.97.97 0 0 1-.286.202c-.112.048-.228.15-.368.295-.118.157-.237.314-.302.474-.097.169-.195.338-.301.474s-.177.208-.256.247c-.058.051-.103.081-.14.145-.024.042-.028.097.003.142-.004.055-.016.076-.062.106s-.1.027-.209.02c-.142.002-.263.017-.345.11-.104.081-.186.175-.28.29s-.177.208-.283.344c-.371.35-.879.789-1.544 1.307s-1.243.833-1.719.925c-.109-.007-.175.011-.233.063s-.052.139.008.23.208.177.432.278c.181.076.384.165.577.221.611.212.949.407 1.048.577.048.112-.009.163-.164.187s-.381-.023-.629-.082c-.27-.071-.557-.208-.844-.346-.405-.177-.816-.246-1.225-.172-.388.086-.792.248-1.186.443-.104.081-.149.111-.119.157.042.024.106.061.215.067.096.028.181.077.244.113.085.049.115.094.087.191-.012.021-.057.051-.133.036-.088.006-.185-.022-.294-.029-.193-.055-.432-.081-.726-.109-.272-.016-.56.043-.885.166-.382.174-.707.297-.953.38-.224.096-.558.185-.958.293-.145.057-.258.105-.349.165-.079.039-.136.09-.161.132-.058.051-.103.081-.17.099-.033.009-.142.002-.272-.016-.303-.062-.512-.042-.691.024a2.33 2.33 0 0 0-.398.25.6.6 0 0 1-.194.141c-.046.03-.1.027-.176.011-.139-.052-.39-.056-.754-.013-.342.056-.739.109-1.169.171-.619.094-1.116.174-1.488.184-.033.009-.088.006-.142.002-.109-.007-.252-.004-.394-.002a2.24 2.24 0 0 0-.373.01c-.121.015-.2.054-.245.084-.3.08-.64.082-1.072.001-.357-.065-.751-.067-1.136-.035-.175.011-.351.023-.515.013s-.272-.016-.393-.002c-.1.027-.179.066-.216.129l-.042-.024c-.021-.012-.042-.024-.097-.028-.063-.037-.127-.073-.202-.089-.064-.037-.139-.052-.215-.068l-.996-.18c-.684-.085-1.364-.224-2.096-.421-.463-.126-.714-.13-.763-.046-.016.076.096.225.334.447.25.201.522.414.857.664l.851.576c.191.11.284.192.348.229.793.627 1.846 1.489 3.189 2.63 1.321 1.129 2.573 2.331 3.724 3.56s1.897 2.28 2.184 3.15c.09.333.127.806.133 1.43a16.34 16.34 0 0 1-.087 1.811c-.069.608-.195 1.071-.312 1.37-.054-.003-.102-.116-.177-.328-.108-.203-.192-.449-.305-.74-.084-.246-.18-.47-.255-.682-.096-.225-.174-.382-.234-.474-.267-.465-.589-.932-.92-1.433a18.27 18.27 0 0 1-.863-1.288 18.62 18.62 0 0 0-2.89-3.247c-.229-.189-.446-.399-.664-.609zm5.626 5.588c-.018-.067-.057-.146-.111-.149-.064-.037-.118-.04-.185-.022-.054-.003-.079.039-.082.094.009.033.06.091.166.152s.172.043.212-.075zm-.854-.719c.182.077.249.059.234-.062s-.093-.279-.234-.473a5.04 5.04 0 0 0-.476-.641c-.162-.207-.316-.38-.452-.486-.157-.119-.232-.134-.269-.071-.003.055.045.167.144.337s.253.343.394.538c.151.228.304.401.437.562l.222.298zm-4.539-5.468c.302.259.522.414.628.475s.118.04.067-.018c-.039-.079-.142-.194-.286-.334a4.35 4.35 0 0 0-.486-.478c-.187-.164-.353-.317-.51-.435s-.283-.192-.371-.186c.009.033.06.091.141.194s.217.21.341.338c.114.094.238.222.332.304.072.07.123.128.144.14zm-7.683-4.661c.154.173.26.234.326.217.076.015.113-.048.086-.148-.006-.088-.033-.188-.105-.258s-.19-.11-.312-.095c-.054-.003-.066.018-.078.039-.004.055.005.088.014.121s.039.079.06.091c-.012.021.009.033.009.033zm-1.524-1.218c-.054-.003-.087.006-.066.018.009.033.03.046.093.082.043.024.106.061.16.064.064.037.118.04.173.043.021.012.054.003.045-.03 0 0-.03-.046-.135-.107-.085-.049-.17-.098-.27-.071zm11.29-.755c.033-.009.067-.018.109.007.076.016.13.019.227.046.181.077.42.102.638.115.482-.004 1.297-.097 2.433-.259s2.222-.381 3.298-.633c1.067-.286 1.753-.595 2.036-.939-.396-.144-.823-.137-1.278-.033a8.77 8.77 0 0 0-1.416.451c-.728.284-1.395.463-2.043.512-.143.002-.352.023-.628.061l-.893.132c-.531.088-.961.15-1.325.194-.945.075-1.769.134-2.468.125-.691.024-1.52-.004-2.468-.072-.163-.01-.285.005-.418.041-.121.015-.221.041-.246.084s.006.088.124.128c.097.028.324.074.638.115.055.003.109.007.185.022a49.39 49.39 0 0 0 1.798.108c.633.027 1.185-.049 1.697-.204zm3.367-3.243a1.53 1.53 0 0 1 .33-.035c.13.019.251.004.372-.01s.179-.066.183-.12c-.006-.088-.121-.182-.341-.338-.042-.024-.085-.049-.115-.094l-.232-.134c-.051-.058-.094-.082-.115-.094-.03-.046-.072-.07-.102-.116-.061-.091-.214-.264-.504-.544a1.22 1.22 0 0 0-.419-.299c-.16-.064-.333-.108-.484-.138-.194-.055-.354-.12-.481-.193-.105-.061-.153-.173-.144-.337.05-.281-.004-.481-.148-.621-.166-.152-.356-.262-.601-.375-.106-.061-.224-.101-.33-.162-.063-.037-.178-.131-.368-.241s-.389-.253-.601-.375c-.157-.119-.326-.216-.441-.311l-.211-.122c-.109-.007-.167.045-.186.175-.006.109.008.23.032.385a2.23 2.23 0 0 1 .008.23c.006.088-.028.097-.082.093-.042-.024-.157-.119-.302-.259l-.581-.702c-.009-.033-.009-.033-.03-.046-.151-.228-.368-.438-.594-.681-.238-.222-.483-.335-.776-.364.051.058.111.149.205.231.102.115.204.231.328.359.103.115.205.231.277.301.082.103.154.173.163.207.03.045-.003.054-.088.006-.097-.028-.245-.113-.486-.281-.504-.348-.914-.81-1.142-1.392-.117-.237-.237-.419-.336-.589-.112-.149-.226-.243-.281-.246a.34.34 0 0 1-.19-.11c-.064-.037-.103-.115-.12-.182-.078-.158-.202-.286-.359-.404-.169-.098-.308-.15-.417-.156-.142.002-.188.032-.161.133-.007.109.159.261.418.495.136.107.251.201.353.316.094.082.154.173.151.228.009.033-.046.03-.152-.031-.093-.082-.262-.18-.428-.332a2.89 2.89 0 0 1-.398-.483 3.26 3.26 0 0 0-.376-.471c-.124-.128-.272-.213-.423-.244-.076-.016-.154.024-.224.096a1.95 1.95 0 0 0-.15.308c-.064.16-.129.32-.239.511a2.2 2.2 0 0 1-.477.486c-.305.332-.509.637-.613.915-.064.16-.125.266-.195.338-.061.106-.161.133-.27.126-.143.002-.274.18-.402.501s-.249.674-.314 1.031c-.077.378-.094.651-.037.796.027.1.054.2.056.343-.016.272.095.618.265 1.055.204.428.711.918 1.487 1.478l.634.366c2.031.778 3.947 1.123 5.746 1.034 1.778-.101 3.623-.417 5.458-.908zm-2.639-2.51c-.227-.047-.45-.147-.616-.3-.187-.164-.286-.334-.364-.492-.057-.146-.009-.23.113-.245.154-.024.399.09.788.343.127.073.242.168.335.25.115.094.142.194.126.27-.006.109-.139.145-.382.174zm-1.76-1.298c.037-.063.104-.081.167-.045s.103.116.163.207c.039.079.045.167.02.209s-.112.048-.239-.025a.26.26 0 0 1-.111-.149c-.018-.067-.015-.121 0-.197zm-4.109-2.598c-.121-.182-.169-.294-.156-.316-.009-.033.066-.018.193.055.076.016.148.086.22.155.061.091.112.149.13.216.02.209.005.285-.071.269s-.199-.143-.316-.38zm-3.08-1.355c.119-.157.146-.254.086-.345s-.157-.119-.287-.138-.263.017-.346.111c-.103.081-.134.233-.08.433.027.1.078.158.166.152.075.016.154-.023.233-.062.091-.06.17-.099.228-.15zm11.488 5.59c-.553-.263-.864-.358-.934-.286s.029.242.276.498.582.505.993.771c.402.232.828.422 1.227.511.206.034.315.041.309-.047-.017-.067-.078-.158-.222-.298-.124-.128-.302-.259-.468-.411-.199-.143-.356-.262-.504-.347-.136-.107-.22-.155-.22-.155l-.457-.235zm6.061 3.076c-.167.045-.228.15-.158.275.035.133.141.194.28.246.151.031.318-.014.482-.201.061-.106.065-.16-.02-.209-.072-.07-.169-.098-.299-.116-.109-.007-.218-.013-.285.005zm-11.455-6.135c-.124-.128-.209-.176-.233-.134-.033.009-.049.084-.022.185s.066.179.159.261.191.11.333.107c-.006-.088-.024-.155-.075-.212-.03-.046-.069-.124-.12-.182l-.042-.024zm19.858-18.332c-.675-.587-1.629-1.279-2.864-2.02-1.257-.754-2.299-1.243-3.14-1.446-.185-.022-.348-.032-.457-.038a3.97 3.97 0 0 1-.348-.032 3 3 0 0 1-.496-.117c-1.863-.681-3.776-.883-5.697-.583-.342.056-.664.124-.976.226l-.134.036c-.333.089-.697.133-1.124.14-.296.026-.572.064-.836.081-.275.038-.488.113-.624.203-.432.259-.905.493-1.421.702-.561.24-1.126.534-1.715.871-.261.159-.489.31-.737.448-.623.346-1.239.779-1.859 1.267-.07.072-.161.133-.286.202s-.224.096-.325.123-.142.002-.139-.052c-.017-.067.056-.194.187-.372.11-.19.183-.317.211-.414l.085-.148c.012-.021.079-.039.133-.036.067-.018.164.01.294.029.076.015.109.006.142-.002s.067-.018.079-.039.025-.042.037-.063c-.009-.033.015-.076.028-.097.024-.042.057-.051.124-.069.033-.009.121-.015.23-.008.055.003.137-.09.244-.226.134-.233.331-.429.608-.663a9.8 9.8 0 0 1 1.175-.619c.382-.174.756-.381 1.162-.597 1.151-.576 2.221-.917 3.166-.991a9.25 9.25 0 0 0 1.94-.431c.346-.111.507-.243.513-.352-.014-.121-.095-.224-.298-.313a1.4 1.4 0 0 0-.602-.178c-.097-.028-.206-.034-.293-.029-.076-.015-.164-.01-.273-.016-.167.045-.258.105-.252.193-.016.076.011.176.08.3-.308-.15-.544-.23-.707-.239-.176.011-.288.059-.358.132a.41.41 0 0 0-.168.242c-.049.084-.085.148-.131.178s-.109-.007-.223-.101c-.157-.119-.251-.201-.302-.259l-.063-.037.021.012c.009.033.039.079.069.124a.43.43 0 0 1 .02.209c.018.067-.019.13-.089.203-.091.06-.203.108-.391.141-.276.038-.472.037-.657.015-.151-.031-.29-.083-.366-.098-.042-.024-.085-.049-.097-.028-.021-.012-.033.009-.036.063.008.033.014.121.062.233l.009.033c.015.121.02.209-.025.239s-.113.048-.188.032a3.89 3.89 0 0 1-.269-.071c-.076-.015-.173-.043-.248-.059-.055-.003-.109-.006-.134.036-.113.245-.22.38-.332.428a.63.63 0 0 1-.3.08.25.25 0 0 0-.188.032c-.067.018-.115.102-.134.233-.012.021-.058.051-.091.06-.046.03-.134.036-.2.054-.252-.004-.543.11-.904.296-.116.102-.198.196-.301.277-.107.136-.222.238-.359.328-.103.081-.282.147-.449.192-.033.009-.067.018-.091.06l-.061.106c-.016.076-.064.16-.147.254-.073.127-.231.205-.434.313s-.489.31-.86.659-.733.733-1.098 1.17-.652.836-.847 1.174c-.208.359-.245.62-.122.747.064.037.209-.02.37-.153.152-.166.338-.341.493-.561.177-.208.308-.386.402-.501l.049-.085a1.31 1.31 0 0 0 .22-.381c.064-.16.159-.275.229-.347.091-.06.221-.041.399.09.115.094.129.215.035.33-.107.136-.247.281-.408.413-.14.145-.255.247-.362.383-.213.272-.402.501-.554.667-.259.302-.472.573-.631.848-.18.263-.39.677-.632 1.242-.334.822-.568 1.814-.679 2.934s.027 2.102.392 2.933c.178.328.413.408.662.269.262-.159.526-.373.785-.675.152-.166.313-.298.453-.443.562-.437 1.394-.999 2.509-1.709 1.135-.697 2.27-1.198 3.383-1.514 1.134-.304 2.008-.109 2.577.614l.03.046c.135.303.182.612.151.961-.053.336-.013.754.133 1.233.123.325.11.543-.027.633s-.349.165-.658.212c-.142.002-.288.059-.442.083-.889.22-1.601.429-2.12.693s-1.132.643-1.886 1.166c-.261.159-.464.267-.607.27-.066.018-.145.057-.212.075-.058.051-.094.115-.143.199-.003.055-.049.085-.061.106-.021-.012-.055-.003-.088.006-.042-.024-.076-.016-.109-.007-.067.018-.091.06-.137.09-.057.051-.085.148-.158.275-.04.118-.11.19-.256.247-.124.069-.258.105-.403.162a1.19 1.19 0 0 0-.628.258c-.14.145-.135.429.06.824.445.596 1.244 1.311 2.41 2.124s2.355 1.585 3.59 2.326c1.268.732 2.265 1.252 3.009 1.624.223.101.532.251.903.437.562.296 1.145.605 1.753.871s1.07.392 1.376.4c2.076-.324 4.444-1.691 7.083-4.114 2.618-2.435 4.496-5.297 5.58-8.59 1.096-3.314.374-6.409-2.188-9.297zM805.8 34.837c.112-.048.179-.066.209-.02s.027.1.011.176-.073.127-.119.157-.109-.007-.181-.077c-.03-.046-.027-.1-.002-.142s.057-.051.082-.094zm13.529 25.346c-.614.576-1.143 1.003-1.577 1.316a27.51 27.51 0 0 1-1.367.902l-1.172.761c-.377.262-.55.415-.457.498.073.07.282.05.615-.04a3.76 3.76 0 0 0 1.023-.453c.737-.448 1.354-.881 1.837-1.279.505-.385 1.04-.922 1.624-1.543.034-.009.046-.03.104-.081a4.53 4.53 0 0 0 .346-.307c.128-.124.201-.25.262-.356s.022-.185-.108-.203c-.109-.007-.221.041-.37.153l-.447.334-.313.298zm-25.541-12.744c.085.049.139.052.164.01s.04-.118.022-.185c-.027-.1-.045-.167-.087-.191-.051-.058-.097-.028-.134.036s-.061.106-.043.172c.03.046.048.112.078.158zm.962-4.547c-.146.254-.287.595-.431.991s-.255.783-.353 1.149a17.42 17.42 0 0 0-.186.908c-.034.206-.004.251.069.124.012-.021.076-.181.214-.468s.266-.608.41-1.004c.166-.384.285-.738.405-1.091.128-.32.175-.547.173-.69s-.103-.115-.301.081zm28.213 13.244c.076-.181.137-.287.128-.32s-.042-.024-.112.048c-.079.039-.161.133-.255.247l-.247.281c-.082.094-.119.157-.131.178-.033.009-.119.157-.274.377-.168.241-.381.513-.597.839s-.388.622-.567.885c-.159.275-.236.456-.23.544s.142-.002.419-.237c.301-.277.587-.676.889-1.15l.757-1.311c-.009-.033.003-.054.016-.076l.085-.148c.046-.03.082-.093.119-.157zm-29.211-13.566c.01-.163-.017-.264-.068-.321-.042-.024-.13-.019-.2.054-.079.039-.128.124-.155.22a.48.48 0 0 0 .098.367c.051.058.094.082.151.031.046-.03.082-.093.098-.169.037-.063.052-.139.076-.181zm1.192-2.357c.055-.193.083-.29.062-.302 0 0-.091.06-.219.184-.35.362-.405.555-.163.526.055.003.112-.048.182-.12.049-.085.098-.169.138-.287zm.911-1.334c-.04.118-.043.172-.034.206s.042.024.067-.018c.033-.009.07-.072.094-.115.037-.063.052-.139.056-.194s-.006-.088-.048-.112c-.034.009-.034.009-.046.03l-.049.085-.036.063c-.013.021-.004.055-.004.055zm1.933-1.59c.295-.168.401-.304.362-.383-.005-.088-.135-.107-.323-.074-.209.02-.413.128-.607.27-.207.163-.362.383-.424.686-.024.042-.049.085-.094.115-.067.018-.125.069-.192.087-.091.06-.17.099-.227.15-.037.063-.019.13.053.2s.173.043.276-.038c.115-.102.243-.226.383-.371a5.72 5.72 0 0 1 .532-.482l.261-.159zm2.144-1.271c.121-.015.246-.084.34-.198.128-.124.298-.223.535-.34.798-.357 1.199-.661 1.224-.9s-.259-.234-.821.005c-.349.165-.643.333-.983.532-.158.078-.295.168-.453.246-.012.021-.045.03-.045.03-.191.087-.349.165-.498.276-.137.09-.264.214-.362.383-.012.021-.046.03-.079.039l-.1.027c-.067.018-.121.015-.188.032a.19.19 0 0 0-.14.145c-.049.085-.055.194-.032.348.012.176.096.224.242.168.136-.09.307-.189.513-.352.149-.111.298-.223.435-.313.17-.099.282-.147.412-.128zm6.484-2.881c-.054-.003-.163-.01-.351.023-.197-.001-.418.041-.661.07s-.463.071-.651.103c-.209.02-.343.056-.397.053-.5.134-.946.271-1.35.433-.424.149-.694.275-.864.375s-.107.136.169.098c.263-.017.818-.148 1.685-.38.034-.009.2-.054.455-.104s.533-.143.855-.211l.825-.257c.212-.075.315-.156.285-.202zm1.928 1.592c.184.219.362.35.501.402.151.031.272.016.321-.068.07-.072.077-.181-.013-.318-.07-.124-.26-.234-.547-.372-.193-.055-.302-.062-.339.002-.028.097-.001.197.077.355zm2.256.682c.076.015.121-.015.116-.102s-.054-.2-.123-.325c-.078-.158-.159-.261-.262-.377-.081-.103-.154-.173-.229-.189-.042-.024-.079.039-.056.194a.98.98 0 0 0 .192.449c.124.128.226.243.362.35zm1.038-.528c-.015-.121-.096-.224-.21-.319-.127-.073-.245-.113-.363-.153-.13-.019-.197-.001-.234.063-.024.042.045.167.232.331.072.07.178.131.275.159.106.061.206.034.3-.08zm1.248.523c-.232-.134-.392-.199-.468-.214s-.1.027-.061.106.111.149.193.252c.114.094.208.177.301.259.073.07.148.085.182.076.079-.039.127-.124.079-.236-.026-.1-.12-.182-.226-.243zm1.33.627c-.067.018-.1.027-.079.039.009.033.03.046.094.082.042.024.105.061.16.064a.35.35 0 0 0 .172.043c.034-.009.055.003.046-.03.012-.021-.051-.058-.124-.128a.49.49 0 0 0-.269-.071zm-19.147 33.994c.091-.06.179-.066.318-.014.13.019.236.08.341.141.073.07.124.128.099.17-.015.076-.124.069-.363.044-.088.006-.206-.034-.291-.083-.105-.061-.132-.161-.104-.258zm24.85 2.564c.338.195.768.331 1.321.397 1.548-.093 2.955-.38 4.232-.884.795-.302 1.295-.436 1.437-.439-.126.463-.256.98-.367 1.564l-.028.097c-.12 1.087.143 1.999.83 2.762.789.146 1.847.023 3.13-.392.475-.092.939-.162 1.345-.182.56-.043 1.291-.185 2.203-.448.379-.119.65-.245.844-.387-.408-.123-.826-.083-1.254.122a2.07 2.07 0 0 1-1.052.21c-.403-.035-.808-.016-1.226.025a4.98 4.98 0 0 1-.988.05c.14-.145.898-.384 2.241-.708l3.071-.68c.288-.059.837-.278 1.701-.653.741-.306 1.147-.522 1.221-.649.024-.042.036-.063-.006-.088-.085-.049-.236-.08-.445-.059-.188.032-.418.04-.666-.018.24-.172.643-.333 1.223-.506a8.38 8.38 0 0 0 1.787-.801l-.021-.012c-.233-.134-.751-.067-1.534.214-.851.157-1.715.335-2.591.534a62.33 62.33 0 0 1-6.05 1.299c-.364.044-.624.006-.793-.091-.221-.155-.204-.428.037-.796l.131-.178a.84.84 0 0 0 .419-.237c.024-.042.061-.106.076-.181l.134-.233c.18-.263.445-.477.812-.575l.203-.108c.045-.03.049-.085.04-.118-.02-.209-.011-.373.084-.487.146-.254.498-.473 1.002-.662.258-.105.482-.201.631-.312.244-.226.55-.415.832-.563.304-.135.498-.276.584-.424.106-.136.074-.324-.068-.518a.58.58 0 0 1 .081-.433c.107-.136.226-.293.369-.492l-.127-.073c-.085-.049-.142-.194-.15-.425.033-.545-.141-.927-.521-1.147-.191-.11-.409-.123-.684-.085-.255.05-1.372.618-3.327 1.66a80.29 80.29 0 0 1-1.794.909l-.385.228c-1.694.883-3.183 1.46-4.435 1.725-1.076.253-1.8.286-2.16.078-.22-.155-.182-.416.071-.805.375-.601 1.266-1.412 2.672-2.432.951-.719 1.862-1.321 2.688-1.775.917-.514 1.418-.845 1.491-.971.037-.064.019-.13-.074-.212-.085-.049-.245-.113-.427-.19.065-.16.141-.342.248-.477-.006-.088-.038-.276-.131-.555-.24-.561-.501-.938-.755-1.084-.212-.122-.517-.13-.905-.043-1.172.564-2.612 1.593-4.308 3.066-1 .804-1.831 1.706-2.447 2.675-.927 1.41-.968 3.19-.081 5.366.117.237.334.447.609.605zm1.959-.561c-.085-.049-.115-.094-.078-.158a.28.28 0 0 1 .191-.087c.248.059.666.018 1.242-.1.618-.094.948-.129 1.012-.092-.037.063-.471.18-1.292.382-.618.094-.97.117-1.075.056zm2.788-.533l-.021-.012.028-.097c.024-.042.124-.069.279-.093l.012-.021.021.012c.258-.105.412-.128.455-.104-.013.021-.058.051-.104.081-.079.039-.145.057-.224.096-.1.027-.246.084-.446.137zm10.928 10.369c.064.037.254.147.583.308s1.038.205 2.134.161c.494-.025 1.242-.1 2.224-.238.585-.085 1.04-.189 1.385-.3.325-.123.558-.185.713-.209.142-.002.33-.035.551-.076.131.019.531-.088 1.255-.318.246-.084.392-.141.428-.204-.03-.046-.172-.043-.393-.002-2.449.334-4.829.454-7.176.368-.021-.012-.054-.003-.109-.007s-.13-.019-.206-.034c-.054-.003-.13-.019-.16-.064-.042-.024-.051-.058-.014-.121.14-.145.419-.237.912-.262 1.012-.092 1.699-.062 2.083.103.227.046.491.029.803-.072.167-.045.3-.08.43-.062 2.736-.197 5.491-.721 8.32-1.568 1.104-.349 1.698-.598 1.784-.746-.043-.024-.606.073-1.658.283l-.797.16c.17-.099 1.277-.503 3.309-1.19.758-.239 1.174-.422 1.223-.506.012-.021.012-.021-.009-.033-.085-.049-.782.084-2.116.442-2.559.721-5.202 1.197-7.94 1.448-1.439.1-2.817.094-4.139-.106-.727-.109-1.338-.321-1.79-.611a2.02 2.02 0 0 1-.748-.854l-.069-.124c-.108-.203-.11-.346-.061-.43.024-.042.082-.094.152-.166.091-.06.173-.154.246-.281s.138-.287.178-.405c.073-.127.113-.245.174-.35.11-.19.255-.247.391-.141l.094.082c.021.012.054.003.066-.018 0 0 .025-.042.028-.097s.028-.097.031-.151.028-.097.052-.139c.305-.529.6-.697.884-.505l.313.238c.505.348 1.346.551 2.478.641.218.013.602-.019 1.142-.074 1.133-.107 1.79-.122 1.938-.037l-.012.021c-.135.233-.756.381-1.877.467-.836.081-1.527.105-2.138.09-.16-.064-.387-.111-.648-.148l-.109-.007a.56.56 0 0 0-.226-.046c-.097-.028-.164-.01-.188.033-.013.021.005.088.078.158.132.161.21.319.17.437-.006.109.021.209.147.282.064.037.17.098.309.15.998.322 2.433.277 4.231-.151.976-.226 1.626-.668 2.004-1.323.061-.106.065-.16.001-.197-.042-.025-.197-.001-.485.058-.345.111-.554.131-.606.073l-.072-.07c.107-.136.301-.277.571-.403.349-.165.556-.328.641-.476.073-.127.08-.236.002-.394-.102-.115-.093-.279.029-.49.068-.215.19-.426.324-.659.056-.193.039-.457-.105-.794-.231-.528-.611-.945-1.073-1.268-.893-.6-1.858-.932-2.905-.973-1.778.101-3.495.632-5.149 1.594-1.112.655-2.081 1.505-2.934 2.591-.177.208-.299.42-.421.631a5.61 5.61 0 0 0-.364.777c-.128.32-.154.756-.124 1.338.029.439.03.778-.011 1.093-.028.294-.002.591.024.887.047.309.212.658.47 1.089.535.929 1.044 1.561 1.527 1.896zm4.658-8.165c-.136-.107-.196-.198-.135-.303.036-.064.14-.145.285-.202.395-.195.895-.329 1.501-.402.848-.102 1.499-.008 1.919.29.232.134.298.313.2.482-.183.317-.665.518-1.489.578-1.009.038-1.777-.096-2.281-.443zm-2.229 1.955c.263.18.486.281.671.303s.285-.005.309-.047c.049-.085-.023-.155-.159-.261-.106-.061-.254-.147-.456-.235-.097-.028-.197-.001-.306-.007-.121.015-.179.066-.204.108-.012.021.018.067.145.14zm6.909 12.643c.958.44 2.047.703 3.279.766.721.021 1.148.014 1.293-.043.091-.06.212-.075.343-.056.151.031.414.014.802-.072 0 0 .013-.021.034-.009.454-.104.721-.175.821-.202.346-.111.717-.46 1.122-1.016l.318-.55c.547-1.094.542-2.111-.002-3.074a12.76 12.76 0 0 0-1.568-2.118c-.021-.012-.042-.024-.051-.058l-.431-.474c-.504-.544-.702-.884-.595-1.02.024-.042.091-.06.179-.066.075.015.154-.024.215-.129 1.797-.964 3.457-1.105 5.023-.398.486.281.881.622 1.164 1.01.181.273.355.459.537.535.202.089.393.002.607-.27.621-.881.928-1.804.945-2.809.012-.754-.321-1.397-1-1.93l-.063-.037c-1.224-.566-2.626-.726-4.226-.494-1.587.211-3.055.604-4.402 1.18-.334.286-.556.525-.712.745-.405.555-.744 1.29-.997 2.215-.086.345-.145.593-.146.79-.013.218.143.534.465 1.001.638 1.044 1.189 1.701 1.608 2 .118.04.251.201.377.471.071.267.192.449.349.568.148.085.235.277.243.507-.007.109-.022.185-.059.248-.094.115-.352.219-.804.269-.927.141-1.932.125-3.016-.05-.62-.048-1.276-.23-1.968-.545s-1.232-.796-1.569-1.385l-.254-.682c-.043-.025-.073-.07-.082-.103-.053-.2-.135-.303-.177-.328s-.133.036-.219.184c-.43.794-.485 1.524-.164 2.189.489.959 1.234 1.671 2.256 2.148 1.033.456 2.277.694 3.773.74 1.002.071 1.547.104 1.631.153.042.024.051.058.039.079-.082.094-.282.147-.612.182-.694.079-1.142.074-1.312-.024-.239-.025-.381-.023-.481.004-.264.017-.848-.095-1.764-.314-.442-.114-.732-.197-.859-.27l-.45-.147c-.527-.163-.808-.213-.82-.191-.037.063.192.252.712.524.212.122.444.256.668.357zm12.23-9.318c-.434-.42-.736-.679-.96-.779-.202-.089-.644-.203-1.303-.33l-.484-.138c.182-.12.63-.115 1.314-.031.26.038.475.105.699.206.266.125.507.293.724.503s.283.389.234.473c-.057.051-.124.069-.224.096zm-2.928 20.891c.191.11.396.144.651.094-.335-1.519-.33-2.7-.026-3.567.109-.726.296-1.295.507-1.709a16.6 16.6 0 0 1 .455-.837c.403-.698 1.015-1.613 1.817-2.757l.073-.127c.042.025.097.028.164.01s.124-.069.173-.154c.028-.097.025-.239-.02-.406-.039-.079-.056-.146-.032-.188.012-.021.046-.03.058-.051.084.049.181.076.29.083.251.004.598-.303 1.04-.922.07-.072.131-.178.216-.326.016-.076.007-.109-.014-.121-.318.014-.461.016-.482.004s.003-.054.04-.118c.061-.106.198-.196.41-.271.112-.048.212-.075.288-.059.185.022.272.016.306.007a10.64 10.64 0 0 1 .432-.455c.228-.15.389-.283.516-.407s.232-.205.289-.256.119-.157.18-.263c-.009-.033-.039-.079-.078-.158-.051-.058-.032-.188.077-.378.098-.169.189-.229.274-.18.063.037.114.094.154.173s.069.124.09.137c.009.033.009.033.03.046.088-.006.179-.066.252-.193.024-.042.028-.097.019-.13.085-.148.155-.22.197-.196l.399.286.067-.018c-.027-.1-.126-.27-.28-.443s-.223-.298-.195-.395c.061-.106.143-.199.225-.293a.82.82 0 0 1 .231-.205c.058-.051.113-.048.134-.036.042.025.027.1-.026.239-.088.202-.086.345-.022.381.314.041.575-.119.771-.457.134-.233.147-.451.03-.687l.012-.021.021.012c.402.232.775.222 1.13-.052.24-.171.462-.41.684-.648.301-.277.566-.491.781-.62a.75.75 0 0 0 .177-.208c.037-.063.052-.139.068-.215-.006-.088.362-.383 1.148-.915l.013-.021c.036-.063.103-.081.224-.096.294.029.482-.004.53-.089l-.017-.067c.012-.021.057-.051.157-.078.246-.084.404-.162.453-.246l.004-.251.061-.106c.994.377 1.56.619 1.708.704.489.226.813.3 1.004.213.17-.099.291-.114.355-.077l.014.121c-.01.163.026.297.162.403.19.11.372.186.577.221.956.298 2.18.864 3.681 1.73a29.57 29.57 0 0 0 1.278.766c.839.597 1.403 1.036 1.693 1.316l.879 1.015c.256.289.41.462.516.523.084.049.163.01.249-.138a.37.37 0 0 0-.062-.43l-.147-.282c.024-.042.07-.072.146-.057s.121-.015.157-.078c-.035-.866-.25-1.47-.658-1.79-.271-.213-.383-.362-.355-.459.012-.021.045-.03.1-.027s.118.04.236.08c.097.028.181.077.245.113s.105.061.16.064c-.281-.783-1.513-1.775-3.702-3.011s-3.964-2.119-5.343-2.661c.24-.171.638-.421 1.206-.77.705-.439 1.306-.797 1.813-1.04.528-.231.859-.463 1.017-.737.074-.127.041-.315-.088-.53-.199-.34-.224-.637-.12-.915l.241-.368c.057-.051.106-.136.167-.242.138-.287.07-.608-.159-.994-.243-.507-.517-.862-.834-1.045-.465-.269-.987-.147-1.585.353a11.63 11.63 0 0 1-1.015.683l-3.108 2.209c-.829.705-1.437 1.171-1.81 1.379-.34.001-1.79-.611-4.371-1.903-1.858-.932-2.943-1.445-3.242-1.562-.692-.315-1.127-.538-1.318-.648l-.241-.168-.287-.138c-.034.009-.076-.015-.118-.04-.36-.207-.586-.254-.66-.127l-.012.021c-.151.505.277 1.034 1.271 1.608.613.354 1.054.665 1.292.887.072.07.124.128.187.164.507.49.754.745.729.788-.323-.074-.508-.096-.545-.033.003.142.093.279.229.386l1.099.635.03.046c-.021-.012-.075-.016-.205-.034s-.218-.013-.243.029c-.012.021-.015.076.015.121.101.312.497.653 1.173 1.044l2.678 1.123c-.149.111-.276.235-.383.371l-3.103 2.493c-2.337 1.949-4.375 4.014-6.123 6.163-.491.703-.924 1.355-1.278 1.969-.671 1.163-1.118 2.23-1.34 3.201-.743 2.165-.636 4.031.311 5.564.274.356.521.611.711.721zm2.387-8.968c-.021-.012.007-.109.071-.269.037-.063.082-.094.103-.081.03.046.003.142-.058.248-.049.085-.074.127-.116.102zm.664-.857l.098-.169c.207-.359.372-.546.523-.516.021.012.009.033-.016.076l-.332.428c-.161.133-.252.193-.273.181zm1.467-1.662s-.009-.033.016-.076c.253-.389.478-.682.709-.887s.368-.295.431-.258l.009.033c-.049.085-.201.251-.435.51-.033.009-.067.018-.103.081s-.095.115-.177.208c-.103.081-.173.154-.243.226-.082.094-.14.145-.173.154l-.034.009zm4.66-4.555c-.021-.012-.009-.033.003-.055.049-.085.152-.166.319-.211.067-.018.121-.015.142-.002.009.033-.003.055-.015.076-.037.063-.095.115-.207.163s-.179.066-.242.029zm1.173.311c-.084-.049-.136-.107-.099-.17.082-.093.149-.111.212-.075.085.049.115.094.066.179-.024.042-.07.072-.179.066zm9.302-1.903c-.105-.061-.22-.155-.353-.317.061-.106.415.014 1.028.368.254.147.357.262.32.325-.049.085-.369-.044-.995-.377zm1.994 1.038l-.105-.061c-.064-.037-.115-.094-.145-.14.024-.042.079-.039.163.01s.136.107.196.198l-.109-.007zm4.052 2.65c-.042-.024-.063-.037-.039-.079s.058-.051.125-.069c.054.003.097.028.097.028.084.049.135.107.099.17s-.134.036-.282-.05zm-.832-.706c-.487-.281-1.275-.82-2.355-1.585.535.196.991.431 1.435.688 1.015.586 1.486.942 1.434 1.081-.025.042-.185-.022-.514-.184zm-6.514 2.103c.486.281 1.213.193 2.16-.275a10.43 10.43 0 0 1 .84-.332c.355-.077.583-.228.693-.418a1.92 1.92 0 0 0 .102-.42 1 1 0 0 1 .098-.366c.028-.097.073-.127.094-.115 0 0 .034-.009.055.003s.054.003.054.003c.022.012.013-.021.025-.042.068-.412-.136-.839-.579-1.293-.38-.417-.745-.712-1.104-.919-.496-.117-1.039-.008-1.628.329s-.969.653-1.185.979c-.183.317-.314.495-.33.571-.235.456-.273.913-.103 1.35.247.452.512.775.808.945zm-11.197 5.77c-.115-.094-.126-.27-.016-.46.131-.178.255-.247.382-.174s.142.194.044.364c-.125.266-.262.356-.41.271zm-.087 3.812c.381.22.828.422 1.409.588l.278.104c.303.062.475.105.529.108s.122-.015.167-.045c.079-.039.179-.066.346-.111.558-.185 1.385-.3 2.46-.355.636-.027 1.112-.119 1.428-.275.416-.183.643-.333.717-.46.012-.021.003-.055-.018-.067-.085-.049-.382-.023-.879.057-1.194.213-2.323.265-3.368.17-1.501-.134-2.358-.262-2.59-.396-.021-.012-.021-.012-.009-.033.036-.063.542-.11 1.472-.109 2.583-.031 4.858-.212 6.807-.609 2.341-.735 4.332-1.643 5.947-2.684.374-.207.568-.349.642-.476.036-.063.03-.151-.021-.209-.039-.079-.057-.146-.074-.212l.364-.241c.522-.319.808-.52.844-.584.013-.021.013-.021-.009-.033s-.142.002-.33.035c-3.31 1.387-5.766 2.224-7.382 2.532-1.624.274-3.169.313-4.655.103l-.105-.061c-.169-.098-.205-.231-.129-.412.22-.381 1.059-1.052 2.559-1.99.683-.451 1.242-.833 1.656-1.158.343-.253.683-.451 1.029-.562.558-.185.901-.438 1.038-.725.159-.275.11-.726-.124-1.397-.285-.531-.613-.89-.973-1.097-.676-.391-1.482-.264-2.418.38a2.3 2.3 0 0 1-.473.234c-.192.087-.328.177-.453.246-2.013 1.29-3.813 2.845-5.408 4.63-.493.561-.864 1.108-1.124 1.606-.794 1.571-.503 2.726.85 3.507zm.891-4.814c-.064-.037-.06-.091-.066-.179.016-.076.031-.151.068-.215l.048-.085c.131-.178.259-.302.441-.422a6.93 6.93 0 0 0 .414-.325c.094-.115.255-.247.495-.419.231-.205.471-.376.745-.557.24-.171.434-.313.58-.37.157-.078.303-.135.415-.183.134-.036.24-.172.362-.383l.077-.181c.089-.203.162-.329.22-.38.036-.064.264-.214.68-.397.349-.165.576-.315.671-.43.213-.272.386-.425.532-.482.112-.048.212-.075.3-.08.121-.015.246-.084.416-.183.24-.172.537-.197.903-.099l.096.028c.127.073.154.173.093.279-.028.097-.173.154-.416.183l-.581.031c-.143.002-.255.05-.304.135-.036.064-.218.184-.501.331l-.431.258-.342.056c-.234.063-.395.195-.48.343-.037.063-.086.148-.177.208-.082.094-.164.187-.271.323s-.222.238-.338.341c-.112.048-.203.108-.252.193-.027.097-.11.19-.225.293l-.474.431c-.149.111-.319.211-.502.331-.373.207-.589.337-.646.388-.07.072-.249.138-.549.219-.122.015-.225.096-.289.256l-.475.628c-.116.103-.195.141-.237.117zm10.865-7.343c-.031-.046-.039-.079-.003-.142.061-.106.326-.319.814-.629.407-.216.653-.3.716-.263.043.024.052.058.015.121-.061.106-.28.289-.611.521-.565.294-.868.429-.931.393zm3.478 17.852c.064.037.13.019.179-.066s.031-.151-.032-.188c-.085-.048-.152-.03-.213.075-.048.085-.018.13.066.179zm-5.643.351c.203.088.535.196 1.022.28.466.071.923.11 1.35.103.44-.029.719-.121.829-.312.073-.127.231-.205.506-.243.255-.05.397-.052.461-.016.021.012.021.012.009.034-.025.042-.104.081-.261.159-.246.084-.371.153-.383.174s-.012.021.009.033c.064.037.306.008.731-.142.324-.123.494-.222.531-.285.012-.021.012-.021-.009-.034l-.182-.076c-.063-.037-.072-.07-.047-.112.061-.106.34-.199.861-.321.588-.139 1.104-.349 1.523-.586.41-.271.668-.376.743-.36.064.036.143-.003.216-.13s.152-.166.249-.138c.084.049.242-.029.473-.234.152-.166.256-.247.319-.21.042.024.069.124.038.275.069.125.205.231.438.366.401.232 1.042.489 1.913.738.505.151.884.228 1.123.253a9.48 9.48 0 0 0 2.415-.325l.175-.011-1.38-.149c-.9.044-1.774-.15-2.605-.517-.335-.25-.48-.39-.455-.432.036-.064.221-.042.587.057.333.107.517.129.538.142a7.31 7.31 0 0 0 2.01.23l2.181-.066c.033-.009.121-.015.263-.017.736-.055 1.133-.107 1.158-.15-.064-.036-.379-.077-.902-.098-.863-.019-1.396-.072-1.544-.158.66-.07 1.242-.1 1.711-.083.491.029.875-.002 1.154-.095.246-.084.458-.158.592-.194.355-.077.691-.221 1.056-.462-.662-.269-1.132-.287-1.393-.127l-3.049-.041c-.699-.009-1.438-.097-2.27-.267-.1.027-.315-.041-.632-.224-.232-.134-.31-.292-.188-.504.18-.263.314-.495.445-.673a6.62 6.62 0 0 0 .375-.601c.223-.435.343-.789.396-1.125-.027-.1.025-.239.123-.408.238-.511.255-.98.027-1.366-.112-.149-.238-.419-.39-.789-.265-.519-.496-.85-.729-.984-.084-.049-.236-.08-.432-.081a.78.78 0 0 1-.433-.081c-.148-.085-.293-.225-.477-.444-.286-.334-.579-.56-.853-.719-.804-.464-1.848-.559-3.1-.295-1.058.319-2.327 1.053-3.874 2.218-1.89 1.418-3.216 2.738-3.987 3.928-.782 1.353-.876 2.737-.303 4.138.36.744.778 1.239 1.286 1.532l.042.025zm.728-3.019l-.021-.012c-.148-.085-.147-.282.036-.599a1.44 1.44 0 0 1 .213-.272c.07-.072.186-.175.359-.328.593-.588 1.381-1.317 2.35-2.167.578-.512.921-.765 1.052-.746.121-.015.224-.096.309-.244s.268-.268.547-.361a4.6 4.6 0 0 0 .905-.493c.331-.232.577-.315.77-.26.181.076.424.047.724-.033s.509-.101.615-.04c.084.049.066.179-.056.39l-.07.072c-.15.308-.249.674-.35 1.095s-.134.769-.096 1.044c.029.242.007.427-.066.554-.131.178-.553.47-1.251.8-.71.351-1.484.666-2.345.986s-1.562.508-2.159.614c-.74.109-1.233.134-1.466-.001zm.246 2.65c-.169-.097-.23-.188-.193-.252.086-.148.395-.195.952-.183.678-.003 1.563-.169 2.676-.485a22.09 22.09 0 0 0 3.17-1.243c.598-.303.922-.425.986-.389s.069.125.008.23c-.073.127-.165.187-.295.169-.033.009-.44.225-1.153.63-.735.394-1.587.747-2.546 1.04-1.349.433-2.422.631-3.194.552-.197-.001-.348-.032-.411-.069zm9.826-4.616a2.68 2.68 0 0 1 .216-.326c.119-.157.247-.281.374-.404s.24-.171.307-.189c.03.046.006.088-.043.172-.098.169-.353.416-.797.696l-.057.051zm.879.479c-.051-.058-.036-.133.013-.218l.106-.136c.104-.081.17-.099.213-.075.03.045.014.121-.071.269-.073.127-.164.187-.261.159zm.609-.86c-.072-.07-.102-.116-.066-.179.049-.085.107-.136.17-.099.043.024.073.07.061.091-.004.055-.016.076-.028.097-.049.085-.094.115-.137.09zm5.402 3.485l.297-.026c.885-.166 1.589-.408 2.114-.781-.181-.076-.39-.056-.648.049-.237.117-.47.179-.691.221s-.467.125-.783.281c-.17.099-.294.168-.319.211-.012.021.009.033.03.045zm-1.072.734l.251.004c.013-.021.034-.009.034-.009l.012-.021c.021.012.033-.009.045-.03-.202-.089-.311-.095-.372.011-.012.021.009.033.03.045zm3.034-1.885c.105.061.205.034.266-.072.004-.055-.026-.1-.078-.158-.121.015-.188.032-.212.075-.037.063-.04.118-.019.13l.043.024zm-4.26 1.713c.148.086.236.08.261.038.012-.021-.03-.046-.094-.083-.172-.043-.248-.058-.26-.037s-.003.054.018.067l.075.015zm3.746 11.043c.148.085.526.162 1.155.244l.248.059c1.108.132 2.217.067 3.302-.152.166-.045.297-.026.381.023.106.061.26.037.464-.071.224-.096.458-.158.688-.166a13.5 13.5 0 0 0 2.44-.565c1.125-.337 1.695-.544 1.756-.649-.126-.074-.666-.018-1.672.162-2.291.453-3.946.682-4.942.699l-.924.086c-.021-.012-.042-.024-.076-.015-.706.1-1.238.046-1.568-.116-.084-.049-.136-.107-.141-.195.112-.048.421-.095.927-.141.176-.011.351-.022.548-.022 1.615-.111 2.639-.224 3.081-.307.606-.073 1.237-.188 1.858-.337l.309-.047c1.398-.321 2.577-.655 3.551-1.023.258-.105.546-.164.846-.244.685-.112 1.134-.304 1.41-.539.122-.212.141-.342.111-.387s-.06-.091-.048-.113.125-.069.303-.134c.816-.291 1.651-.711 2.459-1.231-.684-.085-1.299-.045-1.842.064-.863.178-1.718.389-2.607.61-3.568.956-6.462 1.427-8.694 1.436-.109-.007-.185-.022-.227-.047-.127-.073-.105-.258.054-.533.208-.359.837-1.01 1.935-1.983l.787-.73.979-.816c.723-.569 1.161-.937 1.259-1.106.073-.127.107-.332.123-.605l.084-.487c.127-.463.125-.802.05-1.014l-.039-.079c-.072-.07-.099-.17-.101-.313-.011-.372-.281-.782-.773-1.151-.723-.36-2.444-.114-5.13.731-.692.221-1.092.329-1.256.319a1.69 1.69 0 0 1-.26-.038c-.151-.031-.293-.028-.384.032-.101.027-.167.045-.188.032l.012-.021c.036-.063.301-.277.817-.683l.128-.124c.435-.313.678-.539.739-.645.11-.19.051-.478-.181-.809-.112-.149-.202-.286-.238-.419-.277-.837-.512-1.311-.714-1.399-.233-.134-.682.058-1.347.575-.501.331-1.225.9-2.167 1.653-.905.689-2.285 1.81-4.194 3.358-1.164.991-1.839 1.672-2.047 2.032-.109.19-.131.375-.048.62a.96.96 0 0 1-.039.654c-.116.299-.117.496.001.536.063.037.193.056.402.035s.318-.013.382.023c.021.012.039.079.023.155-.146.253.046.506.533.786 1.202.018 2.324-.265 3.41-.878l.698-.33c-1.416.451-2.141.681-2.204.645-.021-.013-.009-.034.003-.055.073-.127 1.408-.681 4.026-1.651.325-.122 1.037-.331 2.138-.626l2.395-.731c.379-.12.622-.149.718-.121.064.036.061.091.012.175s-.177.209-.362.383l-.265.214c-1.313 1.103-2.448 2.336-3.417 3.722l-.216.326c-.208.359-.261.695-.189.962.029.243.004.482-.052.675-.057.587.225 1.173.88 1.748l.127.074zm-6.565-5.623c-.009-.033-.018-.066.007-.109.097-.169.404-.358.929-.535l.661-.266 5.092-1.74c2.745-.896 4.3-1.295 4.657-1.23.021.012-.003.055-.04.118-.213.272-.741.502-1.584.693-.6.16-2.404.697-5.394 1.677-.337.144-1.666.59-3.94 1.306l-.179.066c-.1.027-.167.045-.209.02zm17.13 2.899l-.063-.037c-.043-.024-.039-.079.022-.184l.024-.043c.012-.021.033-.009.076.016.063.036.081.103.032.188-.037.063-.07.072-.091.06zm.221-.042l-.054-.003c-.043-.024-.027-.1.034-.206.037-.063.082-.093.124-.069.064.037.061.091.024.155-.082.093-.107.136-.128.123zm.37-.152s-.021-.013-.042-.025c0 0-.009-.033.007-.109.061-.105.118-.157.182-.12.051.058.069.124.02.209-.012.021-.045.03-.091.06-.033.009-.054-.003-.076-.015zm.783-.282c-.042-.024-.042-.024-.03-.045s.07-.072.149-.111l.333-.09c.2-.053.321-.068.43-.062.022.013.043.025.031.046l-.025.042c-.237.117-.428.204-.603.216-.155.023-.264.017-.285.004z" fill="#725a1a"/><path d="M633.571 425l.429-3-4.5 4-4.5 3 2.5-.5 3.5-.5 2.571-3z" class="C"/><circle cx="627" cy="422" r="7.5" class="C"/><path d="M629.15 428.074l2.126-1.179c.279-.195.034-.138-.126-.097l-.973.303c-.001 0-.403.107-.398.097.038-.076.343-.146.404-.171l.887-.366c-.44.193-.908.332-1.369.467-.06.018-.579.243-.429.147.33-.209.722-.353 1.077-.511.45-.199-.33.134-.393.158l-2.49.869c-.122.047-.219.142-.341.187-.037.013-.163.035-.183.08-.039.092.504.001.545-.011a11.13 11.13 0 0 0 1.811-.704c.174-.084.449-.192.496-.404.021-.095.075-.202.118-.29.296-.614.633-1.142 1.198-1.548.12-.086.337-.31.501-.319.029-.002-.148.141-.173.164-.433.391-.913.767-1.438 1.026-.36.177-.736.259-1.106.399-.235.089-.472.268-.644.446-.081.084-.051.303.076.341.183.054.601-.208.753-.278a17.76 17.76 0 0 0 2.468-1.409c.461-.311.787-.828 1.178-1.219.189-.189.402-.336.568-.549.056-.072-.067-.063-.11-.055-.123.022-.258.198-.34.28-.184.183-.397.36-.551.57-.196.266-.36.51-.608.738-.09.082-1.521 1.002-1.072 1.209.193.089.453.023.639-.038.479-.157 1.156-.386 1.518-.768.174-.183.213-.535.301-.763l.303-.696c.015-.041.136-.345.016-.185l-.407.534-.476.833c-.286.515-.566 1.141-1.152 1.379-.144.059-.264.169-.408.236-.323.15-.682.246-.992.425-.269.154-.538.266-.787.454-.145.109-.363.408-.547.408" class="C E F"/><path d="M600.286 407.5l.214-1.5-2.25 2-2.25 1.5 1.25-.25L599 409l1.286-1.5z" class="C"/><circle cx="597" cy="406" r="3.5" class="C"/><use xlink:href="#B" class="C E F"/><path d="M618.286 384.5l.214-1.5-2.25 2-2.25 1.5 1.25-.25L617 386l1.286-1.5z" class="C"/><circle cx="615" cy="383" r="3.5" class="C"/><use xlink:href="#B" x="18" y="-23" class="C E F"/><path d="M595.375 362.312l.187-1.312-1.968 1.75-1.969 1.312 1.094-.218 1.531-.219 1.125-1.313z" class="C"/><circle cx="592.5" cy="361" r="3" class="C"/><path d="M593.441 363.658l.93-.517c.122-.085.015-.06-.055-.042-.144.037-.285.087-.426.133-.001 0-.176.046-.174.042.016-.033.15-.064.176-.075l.389-.16c-.193.085-.398.145-.599.205-.027.007-.254.106-.188.064.144-.092.316-.154.471-.224.197-.087-.144.059-.172.069l-1.089.38c-.054.021-.096.063-.149.082-.017.006-.072.016-.08.035-.017.041.22.001.238-.004.271-.076.539-.187.792-.309.076-.036.197-.083.217-.176a.64.64 0 0 1 .052-.127c.129-.269.277-.5.524-.677.053-.038.147-.136.219-.14.013-.001-.065.062-.075.072-.19.171-.4.336-.63.449-.157.077-.322.113-.483.174-.103.039-.207.117-.282.195-.035.037-.023.133.033.149.08.024.263-.09.33-.121.373-.172.739-.386 1.08-.616.201-.137.343-.363.515-.534.082-.083.176-.147.248-.24.025-.032-.029-.027-.048-.024-.054.01-.113.086-.149.122-.08.081-.173.158-.241.25-.086.116-.157.223-.266.323-.039.036-.665.438-.469.529.085.039.198.01.28-.017.21-.069.506-.169.664-.336.076-.08.093-.234.132-.334l.132-.304c.007-.018.06-.151.007-.081l-.178.234-.208.364c-.125.225-.248.499-.504.603-.063.026-.116.074-.179.103-.141.066-.298.108-.434.186-.117.068-.235.117-.344.199-.063.048-.159.178-.239.178" class="C E F"/><path d="M581.643 331.75l.107-.75-1.125 1-1.125.75.625-.125.875-.125.643-.75z" class="C"/><circle cx="580" cy="331" r="1.5" class="C"/><path d="M580.538 332.519l.531-.295c.07-.049.009-.035-.031-.025l-.244.076-.099.024c.009-.019.085-.036.101-.042l.222-.092c-.11.048-.228.083-.343.117-.015.004-.145.061-.107.037.082-.053.18-.088.269-.128.113-.05-.082.034-.098.039l-.622.218c-.031.012-.055.035-.086.046-.009.004-.041.009-.045.02-.01.023.125.001.136-.002.155-.043.308-.107.452-.176.044-.021.113-.048.124-.101.006-.024.019-.051.03-.073.074-.153.158-.285.3-.387.029-.021.084-.077.125-.08.007 0-.037.036-.043.041-.109.098-.229.192-.36.257-.09.044-.184.065-.277.1a.48.48 0 0 0-.16.111c-.021.021-.013.076.019.085.045.014.15-.052.188-.069a4.59 4.59 0 0 0 .617-.352c.115-.078.196-.207.294-.305.048-.047.101-.084.142-.137.014-.018-.017-.016-.027-.014-.031.006-.065.049-.085.07-.046.046-.099.09-.138.142-.049.067-.09.128-.152.185-.022.02-.38.25-.268.302.048.022.113.006.16-.009.12-.04.289-.097.379-.192.044-.046.054-.134.075-.191l.076-.174c.004-.01.034-.086.004-.046l-.102.133-.118.208c-.072.129-.142.286-.288.345-.036.015-.066.042-.102.059-.081.038-.171.062-.249.106-.067.039-.134.067-.196.114-.036.027-.091.102-.137.102" class="C E F"/><g class="D B"><path d="M40.554 561.223c1.254 3.643 2.797 6.202 2.899 6.369.552.905 1.622 1.343 2.643 1.099.559-.134 13.733-3.389 17.739-13.023a29.99 29.99 0 0 0 .857-2.334c-7.267 4.365-15.767 6.767-24.138 7.889z"/><path d="M18.538 538.903a29.73 29.73 0 0 1 2.644-.128c1.828-10.88 5.916-21.713 13.72-29.517 1.721-1.722 3.561-3.355 5.509-4.894-2.498-.712-5.66-.902-9.642-.105-7.814 1.563-11.486 9.992-13.247 17.74-1.663 7.317-1.682 14.197-1.682 14.486 0 1.439 1.25 2.573 2.699 2.418z"/><path d="M31.824 561.948c-1.406.044-3.466.065-4.875-.013a7.29 7.29 0 0 1-6.883-6.887c-.053-.962-.079-2.809-.013-4.871-3.279.454-7.746.571-13.144-.509-1.502-.3-2.91.848-2.91 2.385 0 5.134 1.682 9.64 4.614 12.362 3.088 2.868 6.107 5.887 8.972 8.973 2.723 2.932 7.228 4.613 12.362 4.613 1.534 0 2.686-1.405 2.385-2.909-1.079-5.398-.962-9.865-.509-13.144z"/><path d="M78.005 529.837c-11.195-.782-25.026-14.593-25.84-25.811-.009-.13-.006-.052-.006-1.627-5.213 2.879-9.857 6.337-13.817 10.298-8.808 8.808-12.44 22.399-13.28 34.704-.21 3.084-.218 5.938-.139 7.382.069 1.237 1.057 2.226 2.294 2.294 3.102.173 8.945-.056 14.58-.953 8.613-1.375 17.299-4.224 24.169-9.538.003-.052 1.277-.92 3.45-3.043 3.897-3.919 7.347-8.534 10.145-13.594l-1.557-.112z"/><path d="M86.85 502.92c-.212-1.837-.8-3.888-2.02-5.3-2.677-3.104-8.852-2.85-12.909-2.237-5.041.762-10.288 2.495-14.896 4.578v3.796c.712 8.799 12.59 20.617 21.324 21.227l3.589.257c2.906-6.358 5.755-15.402 4.912-22.321zm-17.828 7.166a2.43 2.43 0 0 1-.999-3.289c.592-1.182 2.216-1.718 3.495-.877.517.341.897.887 1.035 1.547.387 2.07-1.767 3.565-3.531 2.619z"/></g><g class="D B"><path d="M65.425 121.372c.907 2.634 2.022 4.483 2.096 4.604.399.655 1.173.971 1.911.794.404-.096 9.927-2.449 12.823-9.414.232-.557.438-1.121.62-1.687-5.254 3.155-11.398 4.892-17.449 5.703z"/><path d="M49.509 105.237c.017-.002.79-.083 1.911-.092 1.322-7.865 4.277-15.697 9.918-21.338 1.244-1.245 2.574-2.425 3.982-3.537-1.806-.515-4.091-.652-6.97-.076-5.649 1.13-8.303 7.223-9.576 12.824-1.202 5.29-1.216 10.263-1.216 10.472a1.76 1.76 0 0 0 1.951 1.748z"/><path d="M59.114 121.896c-1.016.032-2.506.047-3.524-.009a5.27 5.27 0 0 1-4.976-4.979c-.038-.696-.057-2.03-.009-3.521-2.371.328-5.599.413-9.501-.368A1.76 1.76 0 0 0 39 114.743c0 3.711 1.216 6.969 3.335 8.937l6.486 6.486c1.968 2.119 5.225 3.335 8.936 3.335a1.76 1.76 0 0 0 1.724-2.104c-.78-3.901-.696-7.13-.368-9.501z"/><path d="M92.498 98.684c-8.092-.566-18.091-10.549-18.679-18.659-.007-.094-.005-.037-.005-1.176-3.769 2.081-7.125 4.581-9.988 7.444-6.367 6.367-8.993 16.192-9.6 25.087-.151 2.23-.157 4.293-.1 5.336a1.76 1.76 0 0 0 1.659 1.659c2.242.125 6.466-.04 10.54-.689 6.226-.994 12.505-3.054 17.472-6.895.002-.038.923-.665 2.494-2.2 2.817-2.833 5.311-6.169 7.334-9.827l-1.126-.081z"/><path d="M98.892 79.225c-.153-1.328-.579-2.811-1.46-3.831-1.935-2.244-6.399-2.06-9.332-1.617-3.644.551-7.437 1.803-10.769 3.309v2.745c.514 6.361 9.101 14.904 15.415 15.345l2.595.186c2.101-4.596 4.16-11.134 3.551-16.136zm-12.887 5.181c-.828-.432-1.193-1.495-.722-2.377.428-.854 1.602-1.242 2.526-.634a1.76 1.76 0 0 1 .748 1.118c.28 1.496-1.277 2.577-2.552 1.893z"/></g><g class="D B"><path d="M899.612 610.052c-1.043 3.03-2.326 5.156-2.41 5.295-.459.753-1.349 1.117-2.198.914-.464-.112-11.416-2.817-14.746-10.827-.266-.641-.504-1.289-.713-1.939 6.042 3.628 13.108 5.625 20.067 6.557z"/><path d="M917.915 591.497c-.02-.002-.908-.095-2.199-.105-1.519-9.045-4.918-18.051-11.405-24.539-1.432-1.432-2.961-2.789-4.58-4.068 2.077-.592 4.705-.75 8.016-.088 6.496 1.3 9.549 8.306 11.013 14.748 1.382 6.083 1.398 11.802 1.398 12.042 0 1.197-1.039 2.14-2.243 2.01z"/><path d="M906.869 610.655l4.053-.01c3.09-.172 5.55-2.631 5.722-5.725.043-.801.065-2.336.01-4.05 2.727.377 6.44.474 10.927-.423 1.249-.25 2.419.705 2.419 1.983 0 4.267-1.398 8.013-3.835 10.277a142.96 142.96 0 0 0-7.459 7.458c-2.264 2.438-6.01 3.836-10.277 3.836-1.276 0-2.233-1.169-1.983-2.419.897-4.487.8-8.201.423-10.927z"/><path d="M868.478 583.961c9.306-.65 20.805-12.131 21.481-21.457.007-.108.005-.043.005-1.353 4.334 2.394 8.194 5.268 11.486 8.561 7.322 7.322 10.342 18.621 11.04 28.85.174 2.564.181 4.937.115 6.137a2.02 2.02 0 0 1-1.907 1.907c-2.579.144-7.436-.046-12.121-.792-7.16-1.143-14.381-3.512-20.093-7.929-.002-.044-1.061-.765-2.867-2.53-3.24-3.258-6.108-7.095-8.434-11.301l1.295-.093z"/><path d="M861.125 561.584c.176-1.527.665-3.233 1.679-4.406 2.226-2.581 7.359-2.369 10.731-1.859 4.191.633 8.553 2.073 12.384 3.805v3.156c-.591 7.315-10.466 17.139-17.727 17.647l-2.983.213c-2.417-5.286-4.785-12.804-4.084-18.556zm14.82 5.957a2.02 2.02 0 0 0 .831-2.734c-.492-.982-1.842-1.428-2.905-.729a2.03 2.03 0 0 0-.861 1.286c-.321 1.721 1.469 2.964 2.935 2.177z"/></g><g class="D B"><path d="M534.58 596.095c.741 2.151 1.651 3.662 1.712 3.76.326.535.957.793 1.56.649.33-.079 8.107-2 10.472-7.688a17.72 17.72 0 0 0 .506-1.378c-4.29 2.577-9.308 3.995-14.25 4.657z"/><path d="M521.582 582.918c.014-.001.645-.068 1.561-.075 1.08-6.423 3.493-12.819 8.1-17.426 1.017-1.017 2.103-1.98 3.252-2.889-1.475-.42-3.341-.532-5.692-.062-4.613.923-6.781 5.899-7.821 10.473a43.08 43.08 0 0 0-.993 8.552 1.44 1.44 0 0 0 1.593 1.427z"/><path d="M529.426 596.523c-.83.026-2.046.039-2.878-.007-2.194-.122-3.941-1.869-4.063-4.066-.031-.568-.047-1.658-.008-2.876-1.936.268-4.573.337-7.759-.3-.887-.178-1.718.501-1.718 1.408 0 3.03.993 5.691 2.724 7.298l5.297 5.297c1.607 1.731 4.267 2.724 7.298 2.724a1.44 1.44 0 0 0 1.408-1.718c-.637-3.187-.568-5.824-.301-7.76z"/><path d="M556.69 577.567c-6.609-.462-14.775-8.615-15.255-15.238-.005-.077-.004-.031-.004-.961-3.077 1.7-5.819 3.741-8.156 6.08-5.2 5.2-7.345 13.223-7.84 20.488-.124 1.82-.129 3.505-.082 4.358.04.73.624 1.314 1.354 1.354 1.831.102 5.281-.033 8.608-.562 5.085-.812 10.213-2.495 14.269-5.631.001-.031.753-.544 2.036-1.797 2.301-2.314 4.338-5.038 5.989-8.026l-.919-.065z"/><path d="M561.911 561.675c-.125-1.084-.472-2.295-1.192-3.128-1.581-1.833-5.226-1.683-7.621-1.321-2.976.45-6.073 1.473-8.794 2.703v2.241c.42 5.195 7.432 12.171 12.588 12.532l2.119.151c1.716-3.754 3.398-9.093 2.9-13.178zm-10.524 4.231c-.677-.353-.975-1.221-.59-1.941.349-.698 1.308-1.015 2.063-.518.305.201.53.523.611.913a1.44 1.44 0 0 1-2.084 1.546z"/></g><g class="D B"><path d="M631.58 85.095c.741 2.151 1.651 3.661 1.712 3.76.326.535.957.793 1.56.649.33-.079 8.107-2 10.472-7.688a17.59 17.59 0 0 0 .506-1.378c-4.29 2.577-9.308 3.995-14.25 4.657z"/><path d="M618.582 71.918c.014-.002.645-.068 1.561-.075 1.08-6.423 3.493-12.819 8.1-17.426a37.45 37.45 0 0 1 3.252-2.889c-1.475-.42-3.341-.532-5.692-.062-4.613.923-6.781 5.899-7.821 10.473-.982 4.32-.993 8.381-.993 8.552a1.44 1.44 0 0 0 1.593 1.428z"/><path d="M626.426 85.523a38.1 38.1 0 0 1-2.878-.008c-2.194-.122-3.941-1.868-4.063-4.066-.031-.568-.047-1.658-.008-2.876-1.936.268-4.573.337-7.759-.301-.887-.177-1.718.501-1.718 1.408 0 3.031.993 5.691 2.724 7.298l5.297 5.297c1.607 1.731 4.267 2.724 7.298 2.724a1.44 1.44 0 0 0 1.408-1.718c-.637-3.187-.568-5.824-.301-7.76z"/><path d="M653.69 66.567c-6.609-.462-14.775-8.615-15.255-15.238-.005-.077-.004-.031-.004-.96-3.077 1.7-5.819 3.741-8.156 6.08-5.2 5.2-7.345 13.223-7.84 20.488-.124 1.821-.129 3.506-.082 4.358.04.731.624 1.314 1.354 1.354 1.831.102 5.281-.033 8.608-.562 5.085-.812 10.213-2.494 14.269-5.631.001-.031.753-.543 2.036-1.797 2.301-2.314 4.338-5.038 5.989-8.025l-.919-.066z"/><path d="M658.911 50.675c-.125-1.084-.472-2.295-1.192-3.129-1.581-1.833-5.226-1.683-7.621-1.321-2.976.45-6.073 1.472-8.794 2.702v2.241c.42 5.195 7.432 12.171 12.588 12.532l2.119.151c1.716-3.754 3.398-9.093 2.9-13.178zm-10.524 4.231c-.677-.353-.975-1.221-.59-1.942.349-.698 1.308-1.014 2.063-.518a1.44 1.44 0 0 1 .611.913 1.44 1.44 0 0 1-2.084 1.546z"/></g><g class="D B"><path d="M819.264 168.319c-.574 1.668-1.28 2.839-1.327 2.916-.253.414-.743.615-1.21.503-.256-.061-6.287-1.551-8.121-5.962a13.62 13.62 0 0 1-.393-1.069c3.328 1.998 7.219 3.098 11.051 3.612z"/><path d="M829.344 158.1c-.011-.001-.5-.053-1.21-.058-.837-4.982-2.709-9.942-6.282-13.515a28.95 28.95 0 0 0-2.522-2.24c1.144-.326 2.591-.413 4.415-.048 3.577.715 5.259 4.574 6.065 8.122a33.45 33.45 0 0 1 .77 6.632c0 .659-.572 1.178-1.236 1.107z"/><path d="M823.261 168.651l2.232-.006a3.34 3.34 0 0 0 3.151-3.153c.024-.441.036-1.286.006-2.23 1.502.207 3.547.261 6.018-.233.688-.138 1.332.388 1.332 1.092 0 2.35-.77 4.413-2.112 5.659l-4.108 4.108c-1.247 1.342-3.309 2.112-5.66 2.112-.702 0-1.23-.643-1.092-1.332.494-2.471.441-4.516.233-6.017z"/><path d="M802.118 153.95c5.125-.359 11.458-6.682 11.83-11.818.005-.059.003-.023.003-.744 2.387 1.318 4.513 2.901 6.326 4.714 4.032 4.033 5.695 10.255 6.08 15.889.096 1.412.099 2.719.063 3.379-.031.567-.484 1.019-1.05 1.051-1.42.079-4.095-.026-6.675-.436-3.944-.63-7.921-1.935-11.066-4.367-.001-.024-.585-.421-1.579-1.394a28.23 28.23 0 0 1-4.645-6.223l.713-.051z"/><path d="M798.069 141.626c.097-.841.366-1.78.925-2.426 1.225-1.422 4.052-1.305 5.91-1.024 2.307.348 4.71 1.141 6.82 2.095v1.738c-.326 4.029-5.764 9.439-9.763 9.719l-1.643.117c-1.331-2.911-2.635-7.051-2.249-10.219zm8.162 3.281a1.11 1.11 0 0 0 .457-1.506c-.271-.541-1.014-.786-1.6-.402a1.12 1.12 0 0 0-.474.709c-.177.947.809 1.632 1.617 1.199z"/></g><g class="D B"><path d="M69.86 333.297c-.725 2.108-1.618 3.587-1.677 3.684a1.41 1.41 0 0 1-1.529.635c-.323-.077-7.942-1.959-10.258-7.531a17.22 17.22 0 0 1-.496-1.35c4.203 2.524 9.118 3.913 13.959 4.562z"/><path d="M82.593 320.389c-.014-.001-.632-.066-1.529-.073-1.057-6.292-3.421-12.557-7.934-17.071-.996-.996-2.059-1.94-3.186-2.83 1.445-.411 3.273-.521 5.576-.06 4.519.903 6.643 5.778 7.661 10.259a42.22 42.22 0 0 1 .973 8.377 1.41 1.41 0 0 1-1.561 1.398z"/><path d="M74.909 333.717l2.819-.008c2.15-.119 3.861-1.83 3.981-3.982.03-.557.045-1.625.008-2.817 1.896.262 4.48.33 7.601-.295a1.41 1.41 0 0 1 1.683 1.38c0 2.969-.973 5.574-2.668 7.149l-5.189 5.189c-1.575 1.695-4.18 2.668-7.149 2.668a1.41 1.41 0 0 1-1.379-1.683c.624-3.121.557-5.705.294-7.601z"/><path d="M48.202 315.147c6.474-.452 14.473-8.439 14.943-14.927.005-.075.004-.03.004-.941 3.015 1.665 5.7 3.665 7.99 5.956 5.094 5.093 7.194 12.953 7.68 20.069.121 1.784.126 3.434.08 4.269-.04.716-.611 1.287-1.327 1.327-1.794.1-5.173-.032-8.432-.551-4.981-.795-10.004-2.443-13.978-5.516-.002-.03-.738-.532-1.995-1.76-2.254-2.266-4.249-4.935-5.867-7.862l.901-.064z"/><path d="M43.087 299.58c.123-1.062.463-2.249 1.168-3.065 1.548-1.795 5.119-1.648 7.465-1.293 2.915.44 5.95 1.442 8.615 2.647v2.196c-.411 5.088-7.281 11.922-12.332 12.275l-2.076.149c-1.681-3.677-3.328-8.908-2.841-12.909zm10.31 4.144c.663-.345.955-1.196.578-1.902-.343-.683-1.282-.993-2.021-.507-.299.197-.519.513-.598.895a1.41 1.41 0 0 0 2.042 1.514z"/></g></g><defs><filter id="A" x="0" y="32.424" width="934" height="599.577" filterUnits="userSpaceOnUse" color-interpolation-filters="sRGB"><feFlood flood-opacity="0" result="A"/><feColorMatrix in="SourceAlpha" values="0 0 0 0 0 0 0 0 0 0 0 0 0 0 0 0 0 0 127 0" result="B"/><feOffset dy="4"/><feGaussianBlur stdDeviation="2"/><feComposite in2="B" operator="out"/><feColorMatrix values="0 0 0 0 0 0 0 0 0 0 0 0 0 0 0 0 0 0 0.25 0"/><feBlend in2="A"/><feBlend in="SourceGraphic"/></filter><path id="B" d="M598.075 409.037c.349-.2.733-.359 1.063-.59.14-.097.017-.069-.063-.048-.165.042-.325.099-.487.151l-.198.049c.018-.038.171-.073.201-.086l.444-.182c-.22.096-.454.165-.684.233-.031.009-.29.122-.215.074.165-.105.361-.177.538-.256.225-.1-.165.067-.196.079l-1.245.434c-.061.024-.11.071-.17.094-.019.007-.082.017-.092.04-.019.046.252 0 .273-.006a5.47 5.47 0 0 0 .905-.352c.087-.042.224-.096.248-.202a.67.67 0 0 1 .059-.145c.148-.306.317-.571.599-.774.06-.043.168-.155.25-.159.015-.001-.074.071-.086.082-.216.195-.457.384-.719.513-.18.088-.368.129-.553.199a.96.96 0 0 0-.322.223c-.04.042-.026.152.038.171.092.027.301-.104.376-.139.427-.197.846-.441 1.235-.705.23-.155.393-.414.589-.609.094-.095.201-.168.283-.275.028-.036-.033-.031-.054-.027-.062.011-.13.099-.171.14-.091.092-.198.18-.275.285-.098.133-.18.255-.304.369-.045.041-.76.501-.536.604.097.045.226.012.32-.019.239-.078.578-.192.759-.383.086-.092.106-.268.15-.382l.151-.348c.008-.021.069-.173.009-.093l-.204.267-.238.417c-.143.257-.283.57-.576.69-.072.029-.132.084-.204.117-.162.075-.341.124-.496.213-.134.077-.269.133-.393.227-.073.055-.182.204-.274.204"/></defs></svg>